<svg id="svg" version="1.1" xmlns="http://www.w3.org/2000/svg" xmlns:xlink="http://www.w3.org/1999/xlink" width="400" height="81.08566581849026" viewBox="0, 0, 400,81.08566581849026"><g id="svgg"><path id="path0" d="M42.917 3.226 C 42.733 3.333,41.533 3.974,40.250 4.651 C 38.967 5.328,37.392 6.162,36.750 6.504 C 36.108 6.846,34.852 7.510,33.958 7.979 C 33.065 8.449,31.602 9.218,30.708 9.687 C 29.815 10.157,28.558 10.823,27.917 11.167 C 27.275 11.511,26.000 12.186,25.083 12.668 C 23.132 13.692,21.053 14.793,19.417 15.668 C 18.775 16.011,17.275 16.800,16.083 17.421 C 13.765 18.628,12.405 19.345,9.735 20.765 C 8.810 21.257,7.272 22.068,6.318 22.567 C 5.338 23.080,4.583 23.579,4.583 23.715 C 4.583 23.893,12.673 29.500,12.930 29.500 C 12.955 29.500,18.324 33.048,24.862 37.385 C 42.789 49.277,43.131 49.500,43.407 49.500 C 43.548 49.500,47.695 46.831,52.623 43.569 C 57.551 40.306,66.250 34.550,71.953 30.777 C 77.657 27.004,82.325 23.831,82.328 23.726 C 82.331 23.621,81.940 23.330,81.458 23.080 C 80.977 22.830,79.890 22.259,79.042 21.812 C 78.194 21.366,76.769 20.615,75.875 20.145 C 74.981 19.675,73.650 18.972,72.917 18.584 C 72.183 18.195,70.833 17.482,69.917 16.999 C 69.000 16.516,67.650 15.804,66.917 15.415 C 64.104 13.925,62.694 13.180,61.125 12.355 C 60.231 11.885,58.788 11.125,57.917 10.667 C 57.046 10.208,55.602 9.449,54.708 8.979 C 53.177 8.173,52.257 7.686,48.958 5.938 C 45.262 3.978,43.376 3.001,43.316 3.016 C 43.280 3.025,43.100 3.120,42.917 3.226 M12.333 33.497 C 11.726 33.834,7.889 35.867,5.645 37.042 C 4.931 37.415,4.393 37.795,4.449 37.886 C 4.543 38.037,9.859 41.580,34.321 57.789 C 39.484 61.210,43.339 63.660,43.495 63.620 C 43.771 63.548,45.701 62.287,57.250 54.636 C 79.065 40.185,82.292 38.035,82.379 37.895 C 82.505 37.690,73.859 33.121,73.514 33.211 C 73.368 33.250,70.319 35.232,66.740 37.616 C 63.161 40.000,60.162 41.980,60.075 42.017 C 59.988 42.053,57.029 44.000,53.500 46.343 C 49.971 48.687,46.239 51.153,45.207 51.825 L 43.331 53.047 36.374 48.425 C 32.547 45.883,25.817 41.412,21.417 38.489 C 12.900 32.833,13.218 33.008,12.333 33.497 M11.917 47.821 C 11.275 48.161,9.850 48.916,8.750 49.497 C 7.650 50.079,6.337 50.773,5.833 51.040 C 3.919 52.054,0.780 49.716,30.083 69.097 C 34.208 71.825,38.803 74.872,40.294 75.868 C 41.785 76.864,43.106 77.718,43.229 77.765 C 43.426 77.841,48.491 74.551,62.750 65.085 C 66.819 62.383,79.764 53.837,81.375 52.787 C 82.622 51.975,82.598 51.888,80.875 50.990 C 80.073 50.571,78.367 49.676,77.083 49.001 C 75.800 48.325,74.563 47.674,74.333 47.554 C 74.104 47.434,73.808 47.335,73.675 47.334 C 73.351 47.333,72.333 47.995,53.612 60.396 C 48.128 64.028,43.527 67.000,43.388 67.000 C 43.249 67.000,41.006 65.575,38.404 63.833 C 35.802 62.092,33.635 60.667,33.588 60.667 C 33.542 60.667,30.934 58.952,27.793 56.856 C 21.337 52.548,13.801 47.583,13.370 47.354 C 13.160 47.242,12.773 47.366,11.917 47.821 " stroke="none" fill="#fcfbfb" fill-rule="evenodd"></path><path id="path1" d="M337.624 15.115 C 337.347 15.187,337.334 16.307,337.374 36.471 L 337.417 57.750 341.625 57.795 L 345.833 57.839 345.833 36.522 L 345.833 15.206 345.458 15.105 C 345.030 14.990,338.068 14.999,337.624 15.115 M373.292 15.115 C 373.016 15.187,373.000 16.347,373.000 36.512 L 373.000 57.833 377.250 57.833 L 381.500 57.833 381.500 47.404 L 381.500 36.974 382.208 36.322 C 382.598 35.963,383.083 35.519,383.286 35.335 C 383.489 35.151,383.770 35.000,383.911 35.000 C 384.051 35.000,384.167 34.925,384.167 34.833 C 384.167 34.742,384.392 34.667,384.667 34.667 C 384.942 34.667,385.167 34.592,385.167 34.500 C 385.167 34.408,385.504 34.333,385.917 34.333 C 386.329 34.333,386.667 34.258,386.667 34.167 C 386.667 34.075,386.892 34.000,387.167 34.000 C 387.442 34.000,387.667 34.075,387.667 34.167 C 387.667 34.258,387.892 34.333,388.167 34.333 C 388.442 34.333,388.667 34.408,388.667 34.500 C 388.667 34.592,388.782 34.667,388.922 34.667 C 389.208 34.667,390.333 35.726,390.333 35.994 C 390.333 36.089,390.408 36.167,390.500 36.167 C 390.592 36.167,390.667 36.350,390.667 36.573 C 390.667 36.797,390.742 37.027,390.833 37.083 C 390.942 37.150,391.000 40.807,391.000 47.510 L 391.000 57.833 395.250 57.833 L 399.500 57.833 399.500 46.667 C 399.500 39.333,399.443 35.500,399.333 35.500 C 399.242 35.500,399.167 35.204,399.167 34.843 C 399.167 34.482,399.092 34.140,399.000 34.083 C 398.908 34.027,398.833 33.835,398.833 33.657 C 398.833 33.479,398.758 33.333,398.667 33.333 C 398.575 33.333,398.500 33.160,398.500 32.948 C 398.500 32.736,398.350 32.402,398.167 32.205 C 397.983 32.008,397.833 31.762,397.833 31.657 C 397.833 31.553,397.627 31.266,397.375 31.020 C 397.123 30.774,396.837 30.430,396.739 30.256 C 396.641 30.082,396.422 29.859,396.252 29.761 C 395.900 29.558,395.399 29.181,395.077 28.875 C 394.956 28.760,394.739 28.667,394.595 28.667 C 394.451 28.667,394.333 28.592,394.333 28.500 C 394.333 28.408,394.183 28.333,394.000 28.333 C 393.817 28.333,393.667 28.258,393.667 28.167 C 393.667 28.075,393.442 28.000,393.167 28.000 C 392.892 28.000,392.667 27.925,392.667 27.833 C 392.667 27.728,391.500 27.667,389.500 27.667 C 387.500 27.667,386.333 27.728,386.333 27.833 C 386.333 27.925,386.071 28.000,385.750 28.000 C 385.429 28.000,385.167 28.075,385.167 28.167 C 385.167 28.258,384.942 28.333,384.667 28.333 C 384.392 28.333,384.167 28.408,384.167 28.500 C 384.167 28.592,384.017 28.667,383.833 28.667 C 383.650 28.667,383.500 28.742,383.500 28.833 C 383.500 28.925,383.380 29.000,383.234 29.000 C 383.087 29.000,382.757 29.225,382.500 29.500 C 381.475 30.597,381.500 30.766,381.500 22.603 L 381.500 15.206 381.125 15.105 C 380.697 14.990,373.735 14.999,373.292 15.115 M236.333 37.000 L 236.333 57.833 240.917 57.833 L 245.500 57.833 245.500 49.000 L 245.500 40.167 254.165 40.167 L 262.830 40.167 262.874 48.958 L 262.917 57.750 267.583 57.750 L 272.250 57.750 272.294 36.958 L 272.337 16.167 267.585 16.167 L 262.833 16.167 262.833 24.750 L 262.833 33.333 254.167 33.333 L 245.500 33.333 245.500 24.750 L 245.500 16.167 240.917 16.167 L 236.333 16.167 236.333 37.000 M356.833 19.333 C 356.833 19.425,356.678 19.500,356.488 19.500 C 356.079 19.500,355.667 19.870,355.667 20.238 C 355.667 20.382,355.592 20.500,355.500 20.500 C 355.408 20.500,355.333 20.875,355.333 21.333 C 355.333 21.792,355.258 22.167,355.167 22.167 C 355.075 22.167,355.000 22.537,355.000 22.990 C 355.000 23.443,354.925 23.860,354.833 23.917 C 354.742 23.973,354.667 24.390,354.667 24.843 C 354.667 25.296,354.592 25.667,354.500 25.667 C 354.408 25.667,354.333 26.042,354.333 26.500 C 354.333 26.958,354.258 27.333,354.167 27.333 C 354.075 27.333,354.000 27.558,354.000 27.833 L 354.000 28.333 353.000 28.333 C 352.444 28.333,352.000 28.407,352.000 28.500 C 352.000 28.592,351.625 28.667,351.167 28.667 C 350.708 28.667,350.333 28.742,350.333 28.833 C 350.333 28.925,350.108 29.000,349.833 29.000 L 349.333 29.000 349.333 31.091 C 349.333 33.917,349.407 34.000,351.909 34.000 L 353.667 34.000 353.667 43.167 C 353.667 49.167,353.724 52.333,353.833 52.333 C 353.925 52.333,354.000 52.633,354.000 53.000 C 354.000 53.367,354.075 53.667,354.167 53.667 C 354.258 53.667,354.333 53.817,354.333 54.000 C 354.333 54.183,354.408 54.333,354.500 54.333 C 354.592 54.333,354.667 54.448,354.667 54.589 C 354.667 54.939,356.875 57.167,357.221 57.167 C 357.375 57.167,357.500 57.242,357.500 57.333 C 357.500 57.425,357.725 57.500,358.000 57.500 C 358.275 57.500,358.500 57.575,358.500 57.667 C 358.500 57.758,358.725 57.833,359.000 57.833 C 359.275 57.833,359.500 57.908,359.500 58.000 C 359.500 58.105,360.556 58.167,362.333 58.167 C 364.111 58.167,365.167 58.105,365.167 58.000 C 365.167 57.908,365.467 57.833,365.833 57.833 C 366.200 57.833,366.500 57.758,366.500 57.667 C 366.500 57.575,366.669 57.499,366.875 57.497 C 367.385 57.493,369.495 56.410,369.958 55.915 C 370.336 55.512,370.477 54.667,370.167 54.667 C 370.075 54.667,370.000 54.568,370.000 54.448 C 370.000 54.328,369.850 54.069,369.667 53.872 C 369.483 53.675,369.333 53.415,369.333 53.294 C 369.333 53.173,369.183 52.965,369.000 52.833 C 368.817 52.701,368.667 52.476,368.667 52.333 C 368.667 52.190,368.517 51.965,368.333 51.833 C 368.150 51.701,368.000 51.492,368.000 51.368 C 368.000 50.889,367.529 50.667,366.512 50.667 C 365.948 50.667,365.500 50.741,365.500 50.833 C 365.500 50.925,365.350 51.000,365.167 51.000 C 364.983 51.000,364.833 51.075,364.833 51.167 C 364.833 51.630,363.321 51.332,362.744 50.756 L 362.167 50.178 362.167 42.089 L 362.167 34.000 365.917 34.000 L 369.667 34.000 369.667 31.167 L 369.667 28.333 365.917 28.333 L 362.167 28.333 362.167 23.750 L 362.167 19.167 359.500 19.167 C 357.833 19.167,356.833 19.229,356.833 19.333 M319.167 27.500 C 319.167 27.598,318.583 27.667,317.750 27.667 C 316.917 27.667,316.333 27.735,316.333 27.833 C 316.333 27.925,315.958 28.000,315.500 28.000 C 315.042 28.000,314.667 28.075,314.667 28.167 C 314.667 28.258,314.442 28.333,314.167 28.333 C 313.892 28.333,313.667 28.408,313.667 28.500 C 313.667 28.592,313.517 28.667,313.333 28.667 C 313.150 28.667,313.000 28.742,313.000 28.833 C 313.000 28.925,312.775 29.000,312.500 29.000 C 312.225 29.000,312.000 29.075,312.000 29.167 C 312.000 29.258,311.850 29.333,311.667 29.333 C 311.483 29.333,311.333 29.408,311.333 29.500 C 311.333 29.592,311.200 29.667,311.037 29.667 C 310.874 29.667,310.632 29.817,310.500 30.000 C 310.368 30.183,310.165 30.333,310.048 30.333 C 309.861 30.333,309.567 30.532,308.940 31.083 C 308.835 31.175,308.544 31.356,308.292 31.486 C 307.848 31.715,307.558 33.333,307.961 33.333 C 308.031 33.333,308.212 33.615,308.364 33.958 C 308.733 34.794,309.334 35.544,310.235 36.292 C 311.062 36.978,314.258 36.339,315.186 35.301 C 315.334 35.136,315.653 35.000,315.895 35.000 C 316.136 35.000,316.333 34.925,316.333 34.833 C 316.333 34.742,316.483 34.667,316.667 34.667 C 316.850 34.667,317.000 34.592,317.000 34.500 C 317.000 34.408,317.375 34.333,317.833 34.333 C 318.292 34.333,318.667 34.258,318.667 34.167 C 318.667 34.075,319.004 34.000,319.417 34.000 C 319.829 34.000,320.167 34.075,320.167 34.167 C 320.167 34.258,320.392 34.333,320.667 34.333 C 320.942 34.333,321.167 34.408,321.167 34.500 C 321.167 34.592,321.283 34.667,321.424 34.667 C 321.919 34.667,323.167 36.281,323.167 36.922 C 323.167 37.056,323.242 37.167,323.333 37.167 C 323.432 37.167,323.500 37.778,323.500 38.667 L 323.500 40.167 322.833 40.167 C 322.467 40.167,322.167 40.242,322.167 40.333 C 322.167 40.434,321.444 40.500,320.333 40.500 C 319.222 40.500,318.500 40.566,318.500 40.667 C 318.500 40.759,318.059 40.833,317.510 40.833 C 316.965 40.833,316.473 40.908,316.417 41.000 C 316.360 41.092,316.018 41.167,315.657 41.167 C 315.296 41.167,315.000 41.242,315.000 41.333 C 315.000 41.425,314.700 41.500,314.333 41.500 C 313.967 41.500,313.667 41.575,313.667 41.667 C 313.667 41.758,313.517 41.833,313.333 41.833 C 313.150 41.833,313.000 41.908,313.000 42.000 C 313.000 42.092,312.775 42.167,312.500 42.167 C 312.225 42.167,312.000 42.242,312.000 42.333 C 312.000 42.425,311.850 42.500,311.667 42.500 C 311.483 42.500,311.333 42.575,311.333 42.667 C 311.333 42.758,311.200 42.833,311.037 42.833 C 310.874 42.833,310.632 42.983,310.500 43.167 C 310.368 43.350,310.126 43.500,309.963 43.500 C 309.800 43.500,309.667 43.562,309.667 43.639 C 309.667 43.715,309.463 43.883,309.213 44.014 C 308.692 44.286,308.167 44.768,308.167 44.975 C 308.167 45.053,307.942 45.353,307.667 45.640 C 307.392 45.928,307.167 46.277,307.167 46.415 C 307.167 46.553,307.092 46.667,307.000 46.667 C 306.908 46.667,306.833 46.817,306.833 47.000 C 306.833 47.183,306.758 47.333,306.667 47.333 C 306.575 47.333,306.500 47.708,306.500 48.167 C 306.500 48.625,306.425 49.000,306.333 49.000 C 306.241 49.000,306.167 49.444,306.167 50.000 C 306.167 50.556,306.241 51.000,306.333 51.000 C 306.426 51.000,306.500 51.444,306.500 52.000 C 306.500 52.556,306.574 53.000,306.667 53.000 C 306.758 53.000,306.833 53.150,306.833 53.333 C 306.833 53.517,306.908 53.667,307.000 53.667 C 307.092 53.667,307.167 53.817,307.167 54.000 C 307.167 54.183,307.242 54.333,307.333 54.333 C 307.425 54.333,307.500 54.454,307.500 54.601 C 307.500 54.949,309.718 57.167,310.066 57.167 C 310.213 57.167,310.333 57.242,310.333 57.333 C 310.333 57.425,310.558 57.500,310.833 57.500 C 311.108 57.500,311.333 57.575,311.333 57.667 C 311.333 57.758,311.558 57.833,311.833 57.833 C 312.108 57.833,312.333 57.908,312.333 58.000 C 312.333 58.105,313.444 58.167,315.333 58.167 C 317.222 58.167,318.333 58.105,318.333 58.000 C 318.333 57.908,318.629 57.833,318.990 57.833 C 319.351 57.833,319.693 57.758,319.750 57.667 C 319.807 57.575,319.991 57.500,320.160 57.500 C 320.478 57.500,322.124 56.689,322.587 56.304 C 322.732 56.182,323.107 55.840,323.420 55.542 C 324.176 54.821,324.833 54.797,324.833 55.490 C 324.833 55.760,324.908 56.027,325.000 56.083 C 325.092 56.140,325.167 56.358,325.167 56.567 C 325.167 56.962,325.631 57.500,325.971 57.500 C 326.079 57.500,326.167 57.575,326.167 57.667 C 326.167 57.771,327.250 57.833,329.083 57.833 L 332.000 57.833 332.000 47.500 C 332.000 40.722,331.943 37.167,331.833 37.167 C 331.742 37.167,331.667 36.792,331.667 36.333 C 331.667 35.875,331.592 35.500,331.500 35.500 C 331.408 35.500,331.333 35.248,331.333 34.940 C 331.333 34.422,330.409 32.321,330.125 32.194 C 330.056 32.164,330.000 32.067,330.000 31.979 C 330.000 31.890,329.831 31.639,329.625 31.420 C 329.419 31.200,329.063 30.793,328.833 30.515 C 328.604 30.237,328.316 30.008,328.192 30.005 C 328.068 30.002,327.757 29.775,327.500 29.500 C 327.243 29.225,326.913 29.000,326.766 29.000 C 326.620 29.000,326.500 28.925,326.500 28.833 C 326.500 28.742,326.350 28.667,326.167 28.667 C 325.983 28.667,325.833 28.592,325.833 28.500 C 325.833 28.408,325.683 28.333,325.500 28.333 C 325.317 28.333,325.167 28.258,325.167 28.167 C 325.167 28.075,324.867 28.000,324.500 28.000 C 324.133 28.000,323.833 27.925,323.833 27.833 C 323.833 27.741,323.389 27.667,322.833 27.667 C 322.278 27.667,321.833 27.593,321.833 27.500 C 321.833 27.403,321.278 27.333,320.500 27.333 C 319.722 27.333,319.167 27.403,319.167 27.500 M287.833 27.833 C 287.833 27.925,287.533 28.000,287.167 28.000 C 286.800 28.000,286.500 28.075,286.500 28.167 C 286.500 28.258,286.275 28.333,286.000 28.333 C 285.725 28.333,285.500 28.408,285.500 28.500 C 285.500 28.592,285.275 28.667,285.000 28.667 C 284.725 28.667,284.500 28.742,284.500 28.833 C 284.500 28.925,284.350 29.000,284.167 29.000 C 283.983 29.000,283.833 29.075,283.833 29.167 C 283.833 29.258,283.700 29.333,283.537 29.333 C 283.374 29.333,283.132 29.483,283.000 29.667 C 282.868 29.850,282.658 30.000,282.533 30.000 C 282.409 30.000,282.019 30.300,281.667 30.667 C 281.314 31.033,280.976 31.333,280.915 31.333 C 280.708 31.333,279.000 33.211,279.000 33.439 C 279.000 33.564,278.939 33.667,278.864 33.667 C 278.694 33.667,278.000 34.950,278.000 35.266 C 278.000 35.395,277.925 35.500,277.833 35.500 C 277.742 35.500,277.667 35.725,277.667 36.000 C 277.667 36.275,277.592 36.500,277.500 36.500 C 277.408 36.500,277.333 36.725,277.333 37.000 C 277.333 37.275,277.258 37.500,277.167 37.500 C 277.075 37.500,277.000 37.800,277.000 38.167 C 277.000 38.533,276.925 38.833,276.833 38.833 C 276.727 38.833,276.667 40.167,276.667 42.500 C 276.667 44.833,276.727 46.167,276.833 46.167 C 276.925 46.167,277.000 46.504,277.000 46.917 C 277.000 47.329,277.075 47.667,277.167 47.667 C 277.258 47.667,277.333 47.925,277.333 48.240 C 277.333 48.556,277.408 48.860,277.500 48.917 C 277.592 48.973,277.667 49.165,277.667 49.343 C 277.667 49.521,277.742 49.667,277.833 49.667 C 277.925 49.667,278.000 49.875,278.000 50.130 C 278.000 50.402,278.138 50.692,278.333 50.833 C 278.517 50.965,278.667 51.207,278.667 51.370 C 278.667 51.533,278.742 51.667,278.833 51.667 C 278.925 51.667,279.000 51.787,279.000 51.933 C 279.000 52.080,279.206 52.398,279.458 52.641 C 279.710 52.884,280.023 53.290,280.153 53.542 C 280.283 53.794,280.441 54.000,280.503 54.000 C 280.566 54.000,280.853 54.225,281.140 54.500 C 281.428 54.775,281.742 55.000,281.837 55.000 C 281.933 55.000,282.267 55.244,282.580 55.542 C 283.447 56.367,283.631 56.500,283.910 56.500 C 284.051 56.500,284.167 56.575,284.167 56.667 C 284.167 56.758,284.317 56.833,284.500 56.833 C 284.683 56.833,284.833 56.908,284.833 57.000 C 284.833 57.092,284.979 57.167,285.157 57.167 C 285.335 57.167,285.527 57.242,285.583 57.333 C 285.640 57.425,285.944 57.500,286.260 57.500 C 286.575 57.500,286.833 57.575,286.833 57.667 C 286.833 57.758,287.129 57.833,287.490 57.833 C 287.851 57.833,288.193 57.908,288.250 58.000 C 288.313 58.102,289.641 58.167,291.677 58.167 C 293.781 58.167,295.000 58.106,295.000 58.000 C 295.000 57.908,295.375 57.833,295.833 57.833 C 296.292 57.833,296.667 57.758,296.667 57.667 C 296.667 57.575,296.967 57.500,297.333 57.500 C 297.700 57.500,298.000 57.425,298.000 57.333 C 298.000 57.242,298.183 57.167,298.407 57.167 C 298.631 57.167,298.860 57.092,298.917 57.000 C 298.973 56.908,299.165 56.833,299.343 56.833 C 299.521 56.833,299.667 56.758,299.667 56.667 C 299.667 56.575,299.817 56.500,300.000 56.500 C 300.183 56.500,300.333 56.442,300.333 56.371 C 300.333 56.300,300.596 56.101,300.917 55.928 C 301.237 55.756,301.500 55.551,301.500 55.474 C 301.500 55.397,301.614 55.333,301.753 55.333 C 302.083 55.333,304.167 53.249,304.167 52.920 C 304.167 52.781,304.092 52.667,304.000 52.667 C 303.908 52.667,303.833 52.548,303.833 52.404 C 303.833 52.259,303.533 51.852,303.167 51.500 C 302.800 51.148,302.500 50.776,302.500 50.674 C 302.500 49.908,301.359 49.333,299.839 49.333 C 298.946 49.333,298.333 49.401,298.333 49.500 C 298.333 49.592,298.183 49.667,298.000 49.667 C 297.817 49.667,297.667 49.742,297.667 49.833 C 297.667 49.925,297.517 50.000,297.333 50.000 C 297.150 50.000,297.000 50.075,297.000 50.167 C 297.000 50.258,296.850 50.333,296.667 50.333 C 296.483 50.333,296.333 50.408,296.333 50.500 C 296.333 50.592,296.183 50.667,296.000 50.667 C 295.817 50.667,295.667 50.742,295.667 50.833 C 295.667 50.925,295.442 51.000,295.167 51.000 C 294.892 51.000,294.667 51.075,294.667 51.167 C 294.667 51.258,294.367 51.333,294.000 51.333 C 293.633 51.333,293.333 51.408,293.333 51.500 C 293.333 51.596,292.806 51.667,292.083 51.667 C 291.361 51.667,290.833 51.596,290.833 51.500 C 290.833 51.408,290.533 51.333,290.167 51.333 C 289.800 51.333,289.500 51.258,289.500 51.167 C 289.500 51.075,289.350 51.000,289.167 51.000 C 288.983 51.000,288.833 50.925,288.833 50.833 C 288.833 50.742,288.719 50.667,288.580 50.667 C 288.271 50.667,286.500 48.927,286.500 48.624 C 286.500 48.504,286.350 48.299,286.167 48.167 C 285.971 48.026,285.833 47.735,285.833 47.463 C 285.833 47.208,285.758 47.000,285.667 47.000 C 285.575 47.000,285.500 46.850,285.500 46.667 C 285.500 46.483,285.425 46.333,285.333 46.333 C 285.242 46.333,285.167 45.921,285.167 45.417 L 285.167 44.500 294.167 44.500 C 300.056 44.500,303.167 44.442,303.167 44.333 C 303.167 44.242,303.285 44.167,303.429 44.167 C 304.094 44.167,304.167 43.814,304.167 40.595 C 304.167 38.643,304.105 37.500,304.000 37.500 C 303.908 37.500,303.833 37.200,303.833 36.833 C 303.833 36.467,303.758 36.167,303.667 36.167 C 303.575 36.167,303.500 35.942,303.500 35.667 C 303.500 35.392,303.425 35.167,303.333 35.167 C 303.242 35.167,303.167 34.979,303.167 34.750 C 303.167 34.521,303.092 34.333,303.000 34.333 C 302.908 34.333,302.833 34.183,302.833 34.000 C 302.833 33.817,302.758 33.667,302.667 33.667 C 302.575 33.667,302.500 33.517,302.500 33.333 C 302.500 33.150,302.425 33.000,302.333 33.000 C 302.242 33.000,302.167 32.895,302.167 32.767 C 302.167 32.382,299.318 29.667,298.914 29.667 C 298.778 29.667,298.667 29.592,298.667 29.500 C 298.667 29.408,298.517 29.333,298.333 29.333 C 298.150 29.333,298.000 29.258,298.000 29.167 C 298.000 29.075,297.850 29.000,297.667 29.000 C 297.483 29.000,297.333 28.925,297.333 28.833 C 297.333 28.742,297.183 28.667,297.000 28.667 C 296.817 28.667,296.667 28.592,296.667 28.500 C 296.667 28.408,296.442 28.333,296.167 28.333 C 295.892 28.333,295.667 28.258,295.667 28.167 C 295.667 28.075,295.367 28.000,295.000 28.000 C 294.633 28.000,294.333 27.925,294.333 27.833 C 294.333 27.728,293.139 27.667,291.083 27.667 C 289.028 27.667,287.833 27.728,287.833 27.833 M292.333 33.833 C 292.333 33.925,292.558 34.000,292.833 34.000 C 293.108 34.000,293.333 34.075,293.333 34.167 C 293.333 34.258,293.483 34.333,293.667 34.333 C 293.850 34.333,294.000 34.408,294.000 34.500 C 294.000 34.592,294.116 34.667,294.258 34.667 C 294.591 34.667,295.333 35.409,295.333 35.742 C 295.333 35.884,295.408 36.000,295.500 36.000 C 295.592 36.000,295.667 36.112,295.667 36.250 C 295.667 36.387,295.742 36.500,295.833 36.500 C 295.925 36.500,296.000 36.683,296.000 36.907 C 296.000 37.131,296.075 37.360,296.167 37.417 C 296.258 37.473,296.333 37.815,296.333 38.177 C 296.333 38.538,296.408 38.833,296.500 38.833 C 296.592 38.833,296.667 38.908,296.667 39.000 C 296.667 39.108,294.639 39.167,290.917 39.167 C 287.194 39.167,285.167 39.108,285.167 39.000 C 285.167 38.908,285.242 38.833,285.333 38.833 C 285.425 38.833,285.500 38.656,285.500 38.440 C 285.500 38.045,286.475 35.965,286.708 35.861 C 286.777 35.831,286.833 35.733,286.833 35.645 C 286.833 35.389,287.627 34.667,287.909 34.667 C 288.051 34.667,288.167 34.592,288.167 34.500 C 288.167 34.408,288.317 34.333,288.500 34.333 C 288.683 34.333,288.833 34.258,288.833 34.167 C 288.833 34.075,289.058 34.000,289.333 34.000 C 289.608 34.000,289.833 33.925,289.833 33.833 C 289.833 33.737,290.361 33.667,291.083 33.667 C 291.806 33.667,292.333 33.737,292.333 33.833 M323.500 47.504 L 323.500 49.509 322.754 50.254 C 322.344 50.664,321.911 51.000,321.791 51.000 C 321.672 51.000,321.465 51.150,321.333 51.333 C 321.192 51.529,320.902 51.667,320.630 51.667 C 320.375 51.667,320.167 51.742,320.167 51.833 C 320.167 51.925,319.867 52.000,319.500 52.000 C 319.133 52.000,318.833 52.075,318.833 52.167 C 318.833 52.261,318.361 52.333,317.750 52.333 C 317.139 52.333,316.667 52.261,316.667 52.167 C 316.667 52.075,316.517 52.000,316.333 52.000 C 316.150 52.000,316.000 51.925,316.000 51.833 C 316.000 51.742,315.882 51.667,315.738 51.667 C 315.401 51.667,315.000 51.265,315.000 50.929 C 315.000 50.785,314.925 50.667,314.833 50.667 C 314.741 50.667,314.667 50.222,314.667 49.667 C 314.667 49.111,314.741 48.667,314.833 48.667 C 314.925 48.667,315.000 48.551,315.000 48.409 C 315.000 48.076,315.742 47.333,316.076 47.333 C 316.217 47.333,316.333 47.258,316.333 47.167 C 316.333 47.075,316.483 47.000,316.667 47.000 C 316.850 47.000,317.000 46.925,317.000 46.833 C 317.000 46.742,317.225 46.667,317.500 46.667 C 317.775 46.667,318.000 46.592,318.000 46.500 C 318.000 46.408,318.333 46.333,318.740 46.333 C 319.147 46.333,319.527 46.258,319.583 46.167 C 319.640 46.075,320.209 46.000,320.848 46.000 C 321.728 46.000,322.034 45.939,322.106 45.750 C 322.169 45.587,322.428 45.500,322.851 45.500 L 323.500 45.500 323.500 47.504 " stroke="none" fill="#5c5c5c" fill-rule="evenodd"></path><path id="path2" d="M41.875 0.108 C 41.669 0.153,41.500 0.260,41.500 0.345 C 41.500 0.430,41.350 0.500,41.167 0.500 C 40.983 0.500,40.833 0.575,40.833 0.667 C 40.833 0.758,40.690 0.833,40.514 0.833 C 40.338 0.833,40.169 0.890,40.139 0.958 C 40.065 1.125,38.688 1.833,38.438 1.833 C 38.329 1.833,38.132 1.983,38.000 2.167 C 37.868 2.350,37.626 2.500,37.463 2.500 C 37.300 2.500,37.167 2.575,37.167 2.667 C 37.167 2.758,37.017 2.833,36.833 2.833 C 36.650 2.833,36.500 2.908,36.500 3.000 C 36.500 3.092,36.350 3.167,36.167 3.167 C 35.983 3.167,35.833 3.242,35.833 3.333 C 35.833 3.425,35.715 3.500,35.571 3.500 C 35.427 3.500,35.196 3.613,35.058 3.752 C 34.920 3.890,34.738 3.960,34.653 3.908 C 34.569 3.856,34.500 3.893,34.500 3.990 C 34.500 4.087,34.350 4.167,34.167 4.167 C 33.983 4.167,33.833 4.226,33.833 4.298 C 33.833 4.370,33.421 4.645,32.917 4.909 C 32.412 5.173,32.000 5.451,32.000 5.528 C 32.000 5.604,31.850 5.667,31.667 5.667 C 31.483 5.667,31.333 5.742,31.333 5.833 C 31.333 5.925,31.183 6.000,31.000 6.000 C 30.817 6.000,30.667 6.075,30.667 6.167 C 30.667 6.258,30.517 6.333,30.333 6.333 C 30.150 6.333,30.000 6.408,30.000 6.500 C 30.000 6.592,29.850 6.667,29.667 6.667 C 29.483 6.667,29.333 6.742,29.333 6.833 C 29.333 6.925,29.183 7.000,29.000 7.000 C 28.817 7.000,28.667 7.075,28.667 7.167 C 28.667 7.258,28.517 7.333,28.333 7.333 C 28.150 7.333,28.000 7.408,28.000 7.500 C 28.000 7.592,27.850 7.667,27.667 7.667 C 27.483 7.667,27.333 7.742,27.333 7.833 C 27.333 7.925,27.200 8.000,27.037 8.000 C 26.874 8.000,26.632 8.150,26.500 8.333 C 26.368 8.517,26.126 8.667,25.963 8.667 C 25.800 8.667,25.667 8.742,25.667 8.833 C 25.667 8.925,25.517 9.000,25.333 9.000 C 25.150 9.000,25.000 9.075,25.000 9.167 C 25.000 9.258,24.850 9.333,24.667 9.333 C 24.483 9.333,24.333 9.408,24.333 9.500 C 24.333 9.592,24.183 9.667,24.000 9.667 C 23.817 9.667,23.667 9.742,23.667 9.833 C 23.667 9.925,23.521 10.000,23.343 10.000 C 23.165 10.000,22.973 10.075,22.917 10.167 C 22.860 10.258,22.674 10.333,22.504 10.333 C 22.334 10.333,22.169 10.390,22.139 10.459 C 22.108 10.528,21.577 10.839,20.958 11.151 C 20.340 11.462,19.833 11.780,19.833 11.858 C 19.833 11.936,19.683 12.000,19.500 12.000 C 19.317 12.000,19.167 12.075,19.167 12.167 C 19.167 12.258,19.017 12.333,18.833 12.333 C 18.650 12.333,18.500 12.408,18.500 12.500 C 18.500 12.592,18.350 12.667,18.167 12.667 C 17.983 12.667,17.833 12.742,17.833 12.833 C 17.833 12.925,17.683 13.000,17.500 13.000 C 17.317 13.000,17.167 13.075,17.167 13.167 C 17.167 13.258,17.017 13.333,16.833 13.333 C 16.650 13.333,16.500 13.408,16.500 13.500 C 16.500 13.592,16.350 13.667,16.167 13.667 C 15.983 13.667,15.833 13.723,15.833 13.793 C 15.833 13.862,15.590 14.023,15.292 14.150 C 14.994 14.277,14.511 14.557,14.219 14.774 C 13.928 14.990,13.609 15.167,13.511 15.167 C 13.413 15.167,13.333 15.242,13.333 15.333 C 13.333 15.425,13.183 15.500,13.000 15.500 C 12.817 15.500,12.667 15.575,12.667 15.667 C 12.667 15.758,12.517 15.833,12.333 15.833 C 12.150 15.833,12.000 15.908,12.000 16.000 C 12.000 16.092,11.850 16.167,11.667 16.167 C 11.483 16.167,11.333 16.242,11.333 16.333 C 11.333 16.425,11.183 16.500,11.000 16.500 C 10.817 16.500,10.667 16.575,10.667 16.667 C 10.667 16.758,10.517 16.833,10.333 16.833 C 10.150 16.833,9.999 16.890,9.999 16.958 C 9.997 17.099,9.198 17.500,8.920 17.500 C 8.821 17.500,8.632 17.650,8.500 17.833 C 8.368 18.017,8.126 18.167,7.963 18.167 C 7.800 18.167,7.667 18.242,7.667 18.333 C 7.667 18.425,7.517 18.500,7.333 18.500 C 7.150 18.500,7.000 18.575,7.000 18.667 C 7.000 18.758,6.850 18.833,6.667 18.833 C 6.483 18.833,6.333 18.908,6.333 19.000 C 6.333 19.092,6.183 19.167,6.000 19.167 C 5.817 19.167,5.667 19.242,5.667 19.333 C 5.667 19.425,5.517 19.500,5.333 19.500 C 5.150 19.500,5.000 19.575,5.000 19.667 C 5.000 19.758,4.906 19.833,4.792 19.832 C 4.478 19.830,1.833 21.194,1.833 21.357 C 1.833 21.436,1.683 21.500,1.500 21.500 C 1.317 21.500,1.167 21.575,1.167 21.667 C 1.167 21.758,1.017 21.833,0.833 21.833 C 0.650 21.833,0.500 21.908,0.500 22.000 C 0.500 22.092,0.388 22.167,0.250 22.167 C 0.049 22.167,0.000 22.426,0.000 23.500 C 0.000 24.382,0.064 24.833,0.189 24.833 C 0.293 24.833,0.504 24.979,0.658 25.156 C 0.812 25.334,1.044 25.503,1.173 25.531 C 1.303 25.560,1.547 25.752,1.716 25.958 C 1.886 26.165,2.131 26.333,2.262 26.333 C 2.393 26.333,2.500 26.396,2.500 26.472 C 2.500 26.548,2.706 26.717,2.958 26.847 C 3.210 26.977,3.562 27.215,3.740 27.375 C 3.917 27.535,4.182 27.667,4.328 27.667 C 4.474 27.667,4.701 27.817,4.833 28.000 C 4.965 28.183,5.190 28.333,5.333 28.333 C 5.476 28.333,5.701 28.483,5.833 28.667 C 5.965 28.850,6.190 29.000,6.333 29.000 C 6.476 29.000,6.701 29.150,6.833 29.333 C 6.965 29.517,7.190 29.667,7.333 29.667 C 7.476 29.667,7.701 29.817,7.833 30.000 C 7.965 30.183,8.190 30.333,8.333 30.333 C 8.476 30.333,8.701 30.483,8.833 30.667 C 8.965 30.850,9.207 31.000,9.370 31.000 C 9.533 31.000,9.667 31.043,9.667 31.095 C 9.667 31.291,9.181 31.667,8.929 31.667 C 8.785 31.667,8.667 31.742,8.667 31.833 C 8.667 31.925,8.517 32.000,8.333 32.000 C 8.150 32.000,8.000 32.075,8.000 32.167 C 8.000 32.258,7.856 32.333,7.681 32.333 C 7.505 32.333,7.336 32.390,7.306 32.458 C 7.229 32.630,5.631 33.427,5.466 33.375 C 5.393 33.352,5.333 33.408,5.333 33.500 C 5.333 33.592,5.183 33.667,5.000 33.667 C 4.817 33.667,4.666 33.723,4.665 33.792 C 4.665 33.860,4.496 33.998,4.290 34.097 C 3.444 34.505,2.246 35.227,2.194 35.359 C 2.164 35.436,1.995 35.500,1.819 35.500 C 1.644 35.500,1.500 35.575,1.500 35.667 C 1.500 35.758,1.350 35.833,1.167 35.833 C 0.983 35.833,0.833 35.908,0.833 36.000 C 0.833 36.092,0.691 36.167,0.518 36.167 C 0.103 36.167,0.000 36.479,-0.000 37.738 C -0.000 38.817,0.333 39.500,0.858 39.500 C 0.987 39.500,1.201 39.650,1.333 39.833 C 1.465 40.017,1.690 40.167,1.833 40.167 C 1.976 40.167,2.201 40.317,2.333 40.500 C 2.465 40.683,2.673 40.833,2.794 40.833 C 2.915 40.833,3.175 40.983,3.372 41.167 C 3.569 41.350,3.828 41.500,3.948 41.500 C 4.068 41.500,4.167 41.575,4.167 41.667 C 4.167 41.758,4.279 41.833,4.417 41.833 C 4.554 41.833,4.667 41.908,4.667 42.000 C 4.667 42.092,4.800 42.167,4.963 42.167 C 5.126 42.167,5.368 42.317,5.500 42.500 C 5.632 42.683,5.857 42.833,6.000 42.833 C 6.143 42.833,6.368 42.983,6.500 43.167 C 6.632 43.350,6.857 43.500,7.000 43.500 C 7.143 43.500,7.368 43.650,7.500 43.833 C 7.632 44.017,7.857 44.167,8.000 44.167 C 8.143 44.167,8.368 44.317,8.500 44.500 C 8.632 44.683,8.842 44.833,8.965 44.833 C 9.234 44.833,9.667 45.237,9.667 45.488 C 9.667 45.586,9.517 45.667,9.333 45.667 C 9.150 45.667,9.000 45.742,9.000 45.833 C 9.000 45.925,8.850 46.000,8.667 46.000 C 8.483 46.000,8.333 46.075,8.333 46.167 C 8.333 46.258,8.183 46.333,8.000 46.333 C 7.817 46.333,7.667 46.408,7.667 46.500 C 7.667 46.592,7.517 46.667,7.333 46.667 C 7.150 46.667,7.000 46.742,7.000 46.833 C 7.000 46.925,6.850 47.000,6.667 47.000 C 6.483 47.000,6.333 47.075,6.333 47.167 C 6.333 47.258,6.200 47.333,6.037 47.333 C 5.874 47.333,5.632 47.483,5.500 47.667 C 5.368 47.850,5.131 48.000,4.973 48.000 C 4.815 48.000,4.640 48.075,4.583 48.167 C 4.527 48.258,4.335 48.333,4.157 48.333 C 3.979 48.333,3.833 48.408,3.833 48.500 C 3.833 48.592,3.683 48.667,3.500 48.667 C 3.317 48.667,3.167 48.742,3.167 48.833 C 3.167 48.925,3.017 49.000,2.833 49.000 C 2.650 49.000,2.500 49.075,2.500 49.167 C 2.500 49.258,2.350 49.333,2.167 49.333 C 1.983 49.333,1.833 49.408,1.833 49.500 C 1.833 49.592,1.683 49.667,1.500 49.667 C 1.317 49.667,1.167 49.742,1.167 49.833 C 1.167 49.925,1.017 50.000,0.833 50.000 C 0.650 50.000,0.500 50.075,0.500 50.167 C 0.500 50.258,0.388 50.333,0.250 50.333 C 0.050 50.333,0.000 50.582,0.000 51.570 C 0.000 52.994,0.093 53.333,0.481 53.333 C 0.634 53.333,0.868 53.483,1.000 53.667 C 1.132 53.850,1.357 54.000,1.500 54.000 C 1.643 54.000,1.868 54.150,2.000 54.333 C 2.132 54.517,2.357 54.667,2.500 54.667 C 2.643 54.667,2.868 54.817,3.000 55.000 C 3.132 55.183,3.362 55.333,3.511 55.333 C 3.660 55.333,3.917 55.483,4.083 55.667 C 4.249 55.850,4.467 56.001,4.567 56.003 C 4.668 56.004,4.927 56.192,5.142 56.420 C 5.358 56.647,5.640 56.833,5.767 56.833 C 5.895 56.833,6.000 56.896,6.000 56.972 C 6.000 57.048,6.206 57.216,6.458 57.346 C 6.710 57.475,7.029 57.694,7.167 57.832 C 7.304 57.970,7.524 58.107,7.656 58.135 C 7.788 58.164,8.022 58.333,8.176 58.510 C 8.330 58.688,8.562 58.833,8.691 58.833 C 8.821 58.833,9.035 58.983,9.167 59.167 C 9.299 59.350,9.524 59.500,9.667 59.500 C 9.810 59.500,10.035 59.650,10.167 59.833 C 10.299 60.017,10.524 60.167,10.667 60.167 C 10.810 60.167,11.035 60.317,11.167 60.500 C 11.299 60.683,11.540 60.833,11.703 60.833 C 11.867 60.833,12.000 60.896,12.000 60.972 C 12.000 61.048,12.206 61.217,12.458 61.347 C 12.710 61.477,13.062 61.715,13.240 61.875 C 13.417 62.035,13.682 62.167,13.828 62.167 C 13.974 62.167,14.201 62.317,14.333 62.500 C 14.465 62.683,14.707 62.833,14.870 62.833 C 15.033 62.833,15.167 62.908,15.167 63.000 C 15.167 63.092,15.300 63.167,15.463 63.167 C 15.626 63.167,15.868 63.317,16.000 63.500 C 16.132 63.683,16.357 63.833,16.500 63.833 C 16.643 63.833,16.868 63.983,17.000 64.167 C 17.132 64.350,17.357 64.500,17.500 64.500 C 17.643 64.500,17.868 64.650,18.000 64.833 C 18.132 65.017,18.357 65.167,18.500 65.167 C 18.643 65.167,18.868 65.317,19.000 65.500 C 19.132 65.683,19.323 65.833,19.424 65.833 C 19.526 65.833,19.785 66.021,20.000 66.250 C 20.215 66.479,20.457 66.667,20.536 66.667 C 20.616 66.667,20.842 66.817,21.038 67.000 C 21.235 67.183,21.495 67.333,21.615 67.333 C 21.735 67.333,21.833 67.397,21.833 67.474 C 21.833 67.551,22.171 67.788,22.583 68.000 C 22.996 68.212,23.333 68.449,23.333 68.526 C 23.333 68.603,23.467 68.667,23.630 68.667 C 23.793 68.667,24.035 68.817,24.167 69.000 C 24.299 69.183,24.524 69.333,24.667 69.333 C 24.810 69.333,25.035 69.483,25.167 69.667 C 25.299 69.850,25.524 70.000,25.667 70.000 C 25.810 70.000,26.035 70.150,26.167 70.333 C 26.299 70.517,26.524 70.667,26.667 70.667 C 26.810 70.667,27.035 70.817,27.167 71.000 C 27.299 71.183,27.524 71.333,27.667 71.333 C 27.810 71.333,28.035 71.483,28.167 71.667 C 28.299 71.850,28.524 72.000,28.667 72.000 C 28.810 72.000,29.035 72.150,29.167 72.333 C 29.299 72.517,29.524 72.667,29.667 72.667 C 29.810 72.667,30.035 72.817,30.167 73.000 C 30.299 73.183,30.524 73.333,30.667 73.333 C 30.810 73.333,31.035 73.483,31.167 73.667 C 31.299 73.850,31.540 74.000,31.703 74.000 C 31.867 74.000,32.000 74.063,32.000 74.140 C 32.000 74.218,32.337 74.455,32.750 74.667 C 33.162 74.879,33.500 75.116,33.500 75.193 C 33.500 75.270,33.616 75.333,33.758 75.333 C 33.899 75.333,34.196 75.502,34.416 75.708 C 35.054 76.305,35.333 76.520,35.333 76.417 C 35.333 76.364,35.427 76.397,35.542 76.491 C 36.401 77.195,36.813 77.500,36.906 77.500 C 36.965 77.500,37.175 77.650,37.372 77.833 C 37.569 78.017,37.828 78.167,37.948 78.167 C 38.068 78.167,38.167 78.233,38.167 78.313 C 38.167 78.394,38.392 78.553,38.667 78.667 C 38.942 78.781,39.167 78.927,39.167 78.992 C 39.167 79.057,39.373 79.217,39.625 79.347 C 39.877 79.477,40.229 79.715,40.406 79.875 C 40.584 80.035,40.828 80.167,40.948 80.167 C 41.068 80.167,41.167 80.233,41.167 80.314 C 41.167 80.911,44.359 81.284,44.893 80.750 C 45.030 80.612,45.244 80.500,45.368 80.500 C 45.492 80.500,45.701 80.350,45.833 80.167 C 45.965 79.983,46.190 79.833,46.333 79.833 C 46.476 79.833,46.701 79.683,46.833 79.500 C 46.965 79.317,47.190 79.167,47.333 79.167 C 47.476 79.167,47.701 79.017,47.833 78.833 C 47.965 78.650,48.190 78.500,48.333 78.500 C 48.476 78.500,48.701 78.350,48.833 78.167 C 48.965 77.983,49.190 77.833,49.333 77.833 C 49.476 77.833,49.701 77.683,49.833 77.500 C 49.965 77.317,50.179 77.167,50.309 77.167 C 50.438 77.167,50.667 77.035,50.816 76.875 C 51.141 76.526,51.641 76.194,52.042 76.059 C 52.202 76.005,52.333 75.907,52.333 75.840 C 52.333 75.774,52.671 75.545,53.083 75.333 C 53.496 75.121,53.833 74.884,53.833 74.807 C 53.833 74.730,53.988 74.667,54.177 74.667 C 54.365 74.667,54.473 74.592,54.417 74.500 C 54.360 74.408,54.431 74.333,54.573 74.333 C 54.716 74.333,54.833 74.258,54.833 74.167 C 54.833 74.075,54.967 74.000,55.130 74.000 C 55.293 74.000,55.535 73.850,55.667 73.667 C 55.799 73.483,56.024 73.333,56.167 73.333 C 56.310 73.333,56.535 73.183,56.667 73.000 C 56.799 72.817,57.024 72.667,57.167 72.667 C 57.310 72.667,57.535 72.517,57.667 72.333 C 57.799 72.150,58.013 72.000,58.142 72.000 C 58.272 72.000,58.499 71.868,58.647 71.707 C 58.795 71.546,59.123 71.308,59.375 71.179 C 59.627 71.050,59.833 70.881,59.833 70.805 C 59.833 70.729,59.932 70.667,60.052 70.667 C 60.172 70.667,60.416 70.535,60.594 70.375 C 60.771 70.215,61.123 69.977,61.375 69.847 C 61.627 69.717,61.833 69.548,61.833 69.472 C 61.833 69.396,61.983 69.333,62.167 69.333 C 62.350 69.333,62.500 69.258,62.500 69.167 C 62.500 69.075,62.612 69.000,62.750 69.000 C 62.887 69.000,63.000 68.925,63.000 68.833 C 63.000 68.742,63.098 68.667,63.219 68.667 C 63.339 68.667,63.583 68.535,63.760 68.375 C 63.938 68.215,64.290 67.977,64.542 67.847 C 64.794 67.717,65.000 67.548,65.000 67.472 C 65.000 67.396,65.098 67.333,65.219 67.333 C 65.339 67.333,65.598 67.183,65.795 67.000 C 65.992 66.817,66.223 66.667,66.309 66.667 C 66.395 66.667,66.642 66.480,66.858 66.253 C 67.073 66.025,67.327 65.838,67.422 65.836 C 67.516 65.835,67.701 65.683,67.833 65.500 C 67.965 65.317,68.190 65.167,68.333 65.167 C 68.476 65.167,68.701 65.017,68.833 64.833 C 68.965 64.650,69.190 64.500,69.333 64.500 C 69.476 64.500,69.701 64.350,69.833 64.167 C 69.965 63.983,70.190 63.833,70.333 63.833 C 70.476 63.833,70.701 63.683,70.833 63.500 C 70.965 63.317,71.207 63.167,71.370 63.167 C 71.533 63.167,71.667 63.092,71.667 63.000 C 71.667 62.908,71.779 62.833,71.917 62.833 C 72.054 62.833,72.167 62.758,72.167 62.667 C 72.167 62.575,72.300 62.500,72.463 62.500 C 72.626 62.500,72.868 62.350,73.000 62.167 C 73.132 61.983,73.357 61.833,73.500 61.833 C 73.643 61.833,73.868 61.683,74.000 61.500 C 74.132 61.317,74.357 61.167,74.500 61.167 C 74.643 61.167,74.868 61.017,75.000 60.833 C 75.132 60.650,75.357 60.500,75.500 60.500 C 75.643 60.500,75.868 60.350,76.000 60.167 C 76.132 59.983,76.357 59.833,76.500 59.833 C 76.643 59.833,76.868 59.683,77.000 59.500 C 77.132 59.317,77.357 59.167,77.500 59.167 C 77.643 59.167,77.868 59.017,78.000 58.833 C 78.132 58.650,78.357 58.500,78.500 58.500 C 78.643 58.500,78.868 58.350,79.000 58.167 C 79.132 57.983,79.374 57.833,79.537 57.833 C 79.700 57.833,79.833 57.758,79.833 57.667 C 79.833 57.575,79.967 57.500,80.130 57.500 C 80.293 57.500,80.535 57.350,80.667 57.167 C 80.799 56.983,80.977 56.833,81.063 56.833 C 81.148 56.833,81.464 56.646,81.765 56.417 C 82.065 56.188,82.396 56.000,82.499 56.000 C 82.602 56.000,82.640 55.925,82.583 55.833 C 82.527 55.742,82.597 55.667,82.740 55.667 C 82.883 55.667,83.000 55.592,83.000 55.500 C 83.000 55.408,83.133 55.333,83.297 55.333 C 83.460 55.333,83.701 55.183,83.833 55.000 C 83.965 54.817,84.179 54.667,84.309 54.667 C 84.438 54.667,84.666 54.535,84.814 54.374 C 84.962 54.213,85.290 53.975,85.542 53.846 C 85.794 53.716,86.000 53.548,86.000 53.472 C 86.000 53.396,86.133 53.333,86.297 53.333 C 86.460 53.333,86.701 53.183,86.833 53.000 C 86.965 52.817,87.173 52.667,87.294 52.667 C 87.563 52.667,88.333 51.922,88.333 51.662 C 88.333 51.390,87.898 51.000,87.595 51.000 C 87.451 51.000,87.333 50.925,87.333 50.833 C 87.333 50.742,87.200 50.667,87.037 50.667 C 86.874 50.667,86.632 50.517,86.500 50.333 C 86.368 50.150,86.126 50.000,85.963 50.000 C 85.800 50.000,85.667 49.925,85.667 49.833 C 85.667 49.742,85.517 49.667,85.333 49.667 C 85.150 49.667,85.000 49.592,85.000 49.500 C 85.000 49.408,84.850 49.333,84.667 49.333 C 84.483 49.333,84.333 49.258,84.333 49.167 C 84.333 49.075,84.183 49.000,84.000 49.000 C 83.817 49.000,83.667 48.925,83.667 48.833 C 83.667 48.742,83.517 48.667,83.333 48.667 C 83.150 48.667,83.000 48.592,83.000 48.500 C 83.000 48.408,82.850 48.333,82.667 48.333 C 82.483 48.333,82.333 48.258,82.333 48.167 C 82.333 48.075,82.183 48.000,82.000 48.000 C 81.817 48.000,81.667 47.925,81.667 47.833 C 81.667 47.742,81.479 47.667,81.250 47.667 C 81.021 47.667,80.833 47.592,80.833 47.500 C 80.833 47.408,80.700 47.333,80.537 47.333 C 80.374 47.333,80.132 47.183,80.000 47.000 C 79.868 46.817,79.626 46.667,79.463 46.667 C 79.300 46.667,79.167 46.592,79.167 46.500 C 79.167 46.408,79.017 46.333,78.833 46.333 C 78.650 46.333,78.500 46.258,78.500 46.167 C 78.500 46.075,78.350 46.000,78.167 46.000 C 77.983 46.000,77.833 45.925,77.833 45.833 C 77.833 45.742,77.691 45.667,77.518 45.667 C 77.344 45.667,77.159 45.554,77.106 45.417 C 77.048 45.264,77.106 45.167,77.255 45.167 C 77.390 45.167,77.500 45.092,77.500 45.000 C 77.500 44.908,77.633 44.833,77.797 44.833 C 77.960 44.833,78.201 44.683,78.333 44.500 C 78.465 44.317,78.690 44.167,78.833 44.167 C 78.976 44.167,79.201 44.017,79.333 43.833 C 79.465 43.650,79.690 43.500,79.833 43.500 C 79.976 43.500,80.201 43.350,80.333 43.167 C 80.465 42.983,80.707 42.833,80.870 42.833 C 81.033 42.833,81.167 42.758,81.167 42.667 C 81.167 42.575,81.279 42.500,81.417 42.500 C 81.554 42.500,81.667 42.425,81.667 42.333 C 81.667 42.242,81.765 42.167,81.885 42.167 C 82.005 42.167,82.249 42.035,82.427 41.875 C 82.605 41.715,82.956 41.477,83.208 41.347 C 83.460 41.217,83.667 41.048,83.667 40.972 C 83.667 40.896,83.800 40.833,83.963 40.833 C 84.126 40.833,84.368 40.683,84.500 40.500 C 84.632 40.317,84.857 40.167,85.000 40.167 C 85.143 40.167,85.368 40.017,85.500 39.833 C 85.632 39.650,85.857 39.500,86.000 39.500 C 86.143 39.500,86.368 39.350,86.500 39.167 C 86.632 38.983,86.857 38.833,87.000 38.833 C 87.143 38.833,87.368 38.683,87.500 38.500 C 87.632 38.317,87.874 38.167,88.037 38.167 C 88.244 38.167,88.333 38.038,88.333 37.738 C 88.333 37.256,87.989 36.833,87.595 36.833 C 87.451 36.833,87.333 36.758,87.333 36.667 C 87.333 36.575,87.183 36.500,87.000 36.500 C 86.817 36.500,86.667 36.425,86.667 36.333 C 86.667 36.242,86.517 36.167,86.333 36.167 C 86.150 36.167,86.000 36.092,86.000 36.000 C 86.000 35.908,85.850 35.833,85.667 35.833 C 85.483 35.833,85.333 35.758,85.333 35.667 C 85.333 35.575,85.183 35.500,85.000 35.500 C 84.817 35.500,84.667 35.425,84.667 35.333 C 84.667 35.241,84.367 35.036,84.000 34.877 C 83.633 34.718,83.333 34.531,83.333 34.461 C 83.333 34.391,83.228 34.333,83.099 34.333 C 82.774 34.333,81.500 33.637,81.500 33.459 C 81.500 33.379,81.431 33.356,81.347 33.408 C 81.262 33.460,81.080 33.390,80.942 33.252 C 80.804 33.113,80.573 33.000,80.429 33.000 C 80.285 33.000,80.167 32.925,80.167 32.833 C 80.167 32.742,80.017 32.667,79.833 32.667 C 79.650 32.667,79.500 32.592,79.500 32.500 C 79.500 32.408,79.350 32.333,79.167 32.333 C 78.983 32.333,78.833 32.258,78.833 32.167 C 78.833 32.075,78.683 32.000,78.500 32.000 C 78.317 32.000,78.167 31.925,78.167 31.833 C 78.167 31.742,78.049 31.667,77.905 31.667 C 77.652 31.667,77.167 31.291,77.167 31.095 C 77.167 31.043,77.300 31.000,77.463 31.000 C 77.626 31.000,77.868 30.850,78.000 30.667 C 78.132 30.483,78.357 30.333,78.500 30.333 C 78.643 30.333,78.868 30.183,79.000 30.000 C 79.132 29.817,79.357 29.667,79.500 29.667 C 79.643 29.667,79.868 29.517,80.000 29.333 C 80.132 29.150,80.339 29.000,80.460 29.000 C 80.582 29.000,80.842 28.850,81.038 28.667 C 81.235 28.483,81.495 28.333,81.615 28.333 C 81.735 28.333,81.833 28.270,81.833 28.193 C 81.833 28.116,82.171 27.879,82.583 27.667 C 82.996 27.455,83.333 27.218,83.333 27.140 C 83.333 27.063,83.432 27.000,83.552 27.000 C 83.672 27.000,83.921 26.860,84.104 26.689 C 84.288 26.518,84.616 26.283,84.833 26.167 C 85.269 25.933,85.486 25.767,86.084 25.208 C 86.304 25.002,86.584 24.833,86.706 24.833 C 86.827 24.833,87.035 24.683,87.167 24.500 C 87.299 24.317,87.508 24.167,87.632 24.167 C 87.995 24.167,88.333 23.725,88.333 23.252 C 88.333 23.011,88.264 22.856,88.180 22.908 C 88.096 22.960,87.914 22.890,87.775 22.752 C 87.637 22.613,87.406 22.500,87.262 22.500 C 87.118 22.500,87.000 22.425,87.000 22.333 C 87.000 22.242,86.850 22.167,86.667 22.167 C 86.483 22.167,86.333 22.092,86.333 22.000 C 86.333 21.908,86.183 21.833,86.000 21.833 C 85.817 21.833,85.667 21.758,85.667 21.667 C 85.667 21.575,85.517 21.500,85.333 21.500 C 85.150 21.500,85.000 21.425,85.000 21.333 C 85.000 21.242,84.850 21.167,84.667 21.167 C 84.483 21.167,84.333 21.092,84.333 21.000 C 84.333 20.908,84.183 20.833,84.000 20.833 C 83.817 20.833,83.667 20.771,83.667 20.694 C 83.667 20.527,81.713 19.500,81.393 19.500 C 81.269 19.500,81.167 19.425,81.167 19.333 C 81.167 19.242,81.017 19.167,80.833 19.167 C 80.650 19.167,80.500 19.092,80.500 19.000 C 80.500 18.908,80.350 18.833,80.167 18.833 C 79.983 18.833,79.833 18.758,79.833 18.667 C 79.833 18.575,79.683 18.500,79.500 18.500 C 79.317 18.500,79.167 18.425,79.167 18.333 C 79.167 18.242,79.017 18.167,78.833 18.167 C 78.650 18.167,78.500 18.092,78.500 18.000 C 78.500 17.908,78.367 17.833,78.203 17.833 C 78.040 17.833,77.799 17.683,77.667 17.500 C 77.535 17.317,77.293 17.167,77.130 17.167 C 76.967 17.167,76.833 17.092,76.833 17.000 C 76.833 16.908,76.683 16.833,76.500 16.833 C 76.317 16.833,76.167 16.758,76.167 16.667 C 76.167 16.575,76.017 16.500,75.833 16.500 C 75.650 16.500,75.500 16.425,75.500 16.333 C 75.500 16.242,75.350 16.167,75.167 16.167 C 74.983 16.167,74.833 16.092,74.833 16.000 C 74.833 15.908,74.683 15.833,74.500 15.833 C 74.317 15.833,74.167 15.758,74.167 15.667 C 74.167 15.575,74.017 15.500,73.833 15.500 C 73.650 15.500,73.500 15.434,73.500 15.353 C 73.500 15.272,73.369 15.160,73.208 15.105 C 73.048 15.050,72.617 14.816,72.250 14.584 C 71.883 14.353,71.302 14.034,70.958 13.876 C 70.615 13.717,70.333 13.531,70.333 13.461 C 70.333 13.391,70.183 13.333,70.000 13.333 C 69.817 13.333,69.667 13.258,69.667 13.167 C 69.667 13.075,69.517 13.000,69.333 13.000 C 69.150 13.000,69.000 12.925,69.000 12.833 C 69.000 12.742,68.850 12.667,68.667 12.667 C 68.483 12.667,68.333 12.592,68.333 12.500 C 68.333 12.408,68.183 12.333,68.000 12.333 C 67.817 12.333,67.667 12.258,67.667 12.167 C 67.667 12.075,67.517 12.000,67.333 12.000 C 67.150 12.000,67.000 11.925,67.000 11.833 C 67.000 11.742,66.850 11.667,66.667 11.667 C 66.483 11.667,66.333 11.592,66.333 11.500 C 66.333 11.408,66.200 11.333,66.037 11.333 C 65.874 11.333,65.632 11.183,65.500 11.000 C 65.368 10.817,65.089 10.667,64.880 10.667 C 64.671 10.667,64.500 10.592,64.500 10.500 C 64.500 10.408,64.387 10.333,64.250 10.333 C 64.112 10.333,64.000 10.258,64.000 10.167 C 64.000 10.075,63.850 10.000,63.667 10.000 C 63.483 10.000,63.333 9.925,63.333 9.833 C 63.333 9.742,63.188 9.667,63.010 9.667 C 62.832 9.667,62.640 9.592,62.583 9.500 C 62.527 9.408,62.335 9.333,62.157 9.333 C 61.979 9.333,61.833 9.258,61.833 9.167 C 61.833 9.075,61.683 9.000,61.500 9.000 C 61.317 9.000,61.167 8.925,61.167 8.833 C 61.167 8.742,61.017 8.667,60.833 8.667 C 60.650 8.667,60.500 8.592,60.500 8.500 C 60.500 8.408,60.367 8.333,60.203 8.333 C 60.040 8.333,59.799 8.183,59.667 8.000 C 59.535 7.817,59.293 7.667,59.130 7.667 C 58.967 7.667,58.833 7.592,58.833 7.500 C 58.833 7.408,58.683 7.333,58.500 7.333 C 58.317 7.333,58.167 7.258,58.167 7.167 C 58.167 7.075,58.017 7.000,57.833 7.000 C 57.650 7.000,57.500 6.925,57.500 6.833 C 57.500 6.742,57.350 6.667,57.167 6.667 C 56.983 6.667,56.833 6.592,56.833 6.500 C 56.833 6.408,56.683 6.333,56.500 6.333 C 56.317 6.333,56.167 6.258,56.167 6.167 C 56.167 6.075,56.017 6.000,55.833 6.000 C 55.650 6.000,55.500 5.925,55.500 5.833 C 55.500 5.742,55.350 5.667,55.167 5.667 C 54.983 5.667,54.833 5.592,54.833 5.500 C 54.833 5.408,54.690 5.333,54.514 5.333 C 54.338 5.333,54.169 5.277,54.139 5.208 C 54.061 5.033,52.856 4.271,52.208 3.988 C 51.910 3.858,51.667 3.695,51.667 3.626 C 51.667 3.557,51.517 3.500,51.333 3.500 C 51.150 3.500,51.000 3.425,51.000 3.333 C 51.000 3.242,50.850 3.167,50.667 3.167 C 50.483 3.167,50.333 3.092,50.333 3.000 C 50.333 2.908,50.183 2.833,50.000 2.833 C 49.817 2.833,49.667 2.758,49.667 2.667 C 49.667 2.575,49.517 2.500,49.333 2.500 C 49.150 2.500,49.000 2.425,49.000 2.333 C 49.000 2.242,48.850 2.167,48.667 2.167 C 48.483 2.167,48.333 2.092,48.333 2.000 C 48.333 1.908,48.200 1.833,48.037 1.833 C 47.874 1.833,47.632 1.683,47.500 1.500 C 47.368 1.317,47.126 1.167,46.963 1.167 C 46.800 1.167,46.667 1.092,46.667 1.000 C 46.667 0.908,46.517 0.833,46.333 0.833 C 46.150 0.833,46.000 0.758,46.000 0.667 C 46.000 0.575,45.856 0.500,45.681 0.500 C 45.505 0.500,45.332 0.411,45.295 0.303 C 45.227 0.099,42.606 -0.050,41.875 0.108 M45.483 4.104 C 46.638 4.712,48.202 5.537,48.958 5.938 C 52.257 7.686,53.177 8.173,54.708 8.979 C 55.602 9.449,57.046 10.208,57.917 10.667 C 58.788 11.125,60.231 11.885,61.125 12.355 C 62.694 13.180,64.104 13.925,66.917 15.415 C 67.650 15.804,69.000 16.516,69.917 16.999 C 70.833 17.482,72.183 18.195,72.917 18.584 C 73.650 18.972,74.981 19.675,75.875 20.145 C 76.769 20.615,78.194 21.366,79.042 21.812 C 79.890 22.259,80.977 22.830,81.458 23.080 C 81.940 23.330,82.331 23.621,82.328 23.726 C 82.325 23.831,77.657 27.004,71.953 30.777 C 66.250 34.550,57.551 40.306,52.623 43.569 C 47.695 46.831,43.548 49.500,43.407 49.500 C 43.131 49.500,42.789 49.277,24.862 37.385 C 18.324 33.048,12.955 29.500,12.930 29.500 C 12.673 29.500,4.583 23.893,4.583 23.715 C 4.583 23.579,5.338 23.080,6.318 22.567 C 7.272 22.068,8.810 21.257,9.735 20.765 C 12.405 19.345,13.765 18.628,16.083 17.421 C 17.275 16.800,18.775 16.011,19.417 15.668 C 21.053 14.793,23.132 13.692,25.083 12.668 C 26.000 12.186,27.275 11.511,27.917 11.167 C 28.558 10.823,29.815 10.157,30.708 9.687 C 31.602 9.218,33.065 8.449,33.958 7.979 C 34.852 7.510,36.108 6.846,36.750 6.504 C 37.392 6.162,38.967 5.328,40.250 4.651 C 41.533 3.974,42.733 3.333,42.917 3.226 C 43.100 3.120,43.280 3.025,43.316 3.016 C 43.352 3.007,44.327 3.497,45.483 4.104 M99.541 36.958 L 99.583 57.750 109.208 57.793 C 115.594 57.822,118.833 57.779,118.833 57.668 C 118.833 57.571,119.324 57.500,119.990 57.500 C 120.626 57.500,121.193 57.425,121.250 57.333 C 121.307 57.242,121.607 57.167,121.917 57.167 C 122.227 57.167,122.527 57.092,122.583 57.000 C 122.640 56.908,122.865 56.833,123.083 56.833 C 123.302 56.833,123.527 56.758,123.583 56.667 C 123.640 56.575,123.865 56.500,124.083 56.500 C 124.302 56.500,124.527 56.425,124.583 56.333 C 124.640 56.242,124.824 56.167,124.992 56.167 C 125.160 56.167,125.341 56.054,125.394 55.917 C 125.446 55.779,125.679 55.667,125.911 55.667 C 126.143 55.667,126.333 55.592,126.333 55.500 C 126.333 55.408,126.467 55.333,126.630 55.333 C 126.793 55.333,127.035 55.183,127.167 55.000 C 127.299 54.817,127.540 54.667,127.703 54.667 C 127.867 54.667,128.000 54.592,128.000 54.500 C 128.000 54.408,128.150 54.333,128.333 54.333 C 128.517 54.333,128.667 54.258,128.667 54.167 C 128.667 54.075,128.763 54.000,128.880 54.000 C 128.997 54.000,129.201 53.850,129.333 53.667 C 129.465 53.483,129.663 53.333,129.773 53.333 C 130.072 53.333,133.167 50.226,133.167 49.926 C 133.167 49.783,133.229 49.667,133.305 49.667 C 133.381 49.667,133.550 49.460,133.679 49.208 C 133.808 48.956,134.046 48.629,134.207 48.480 C 134.368 48.332,134.500 48.088,134.500 47.939 C 134.500 47.789,134.575 47.667,134.667 47.667 C 134.758 47.667,134.833 47.517,134.833 47.333 C 134.833 47.150,134.908 47.000,135.000 47.000 C 135.092 47.000,135.167 46.813,135.167 46.583 C 135.167 46.354,135.242 46.167,135.333 46.167 C 135.425 46.167,135.500 45.942,135.500 45.667 C 135.500 45.392,135.575 45.167,135.667 45.167 C 135.758 45.167,135.833 44.942,135.833 44.667 C 135.833 44.392,135.908 44.167,136.000 44.167 C 136.092 44.167,136.167 43.942,136.167 43.667 C 136.167 43.392,136.242 43.167,136.333 43.167 C 136.425 43.167,136.500 42.867,136.500 42.500 C 136.500 42.133,136.575 41.833,136.667 41.833 C 136.762 41.833,136.833 41.333,136.833 40.667 C 136.833 40.000,136.905 39.500,137.000 39.500 C 137.103 39.500,137.167 38.583,137.167 37.083 C 137.167 35.583,137.103 34.667,137.000 34.667 C 136.905 34.667,136.833 34.167,136.833 33.500 C 136.833 32.833,136.762 32.333,136.667 32.333 C 136.575 32.333,136.500 31.958,136.500 31.500 C 136.500 31.042,136.425 30.667,136.333 30.667 C 136.242 30.667,136.167 30.442,136.167 30.167 C 136.167 29.892,136.092 29.667,136.000 29.667 C 135.908 29.667,135.833 29.442,135.833 29.167 C 135.833 28.892,135.758 28.667,135.667 28.667 C 135.575 28.667,135.500 28.517,135.500 28.333 C 135.500 28.150,135.425 28.000,135.333 28.000 C 135.242 28.000,135.167 27.775,135.167 27.500 C 135.167 27.225,135.092 27.000,135.000 27.000 C 134.908 27.000,134.833 26.867,134.833 26.703 C 134.833 26.540,134.683 26.299,134.500 26.167 C 134.317 26.035,134.167 25.793,134.167 25.630 C 134.167 25.467,134.092 25.333,134.000 25.333 C 133.908 25.333,133.833 25.222,133.833 25.085 C 133.833 24.857,133.571 24.468,133.042 23.910 C 132.927 23.789,132.833 23.614,132.833 23.520 C 132.833 23.304,130.372 20.833,130.157 20.833 C 130.069 20.833,129.762 20.608,129.474 20.333 C 129.186 20.058,128.828 19.833,128.679 19.833 C 128.529 19.833,128.299 19.683,128.167 19.500 C 128.035 19.317,127.793 19.167,127.630 19.167 C 127.467 19.167,127.333 19.092,127.333 19.000 C 127.333 18.908,127.183 18.833,127.000 18.833 C 126.817 18.833,126.667 18.758,126.667 18.667 C 126.667 18.575,126.517 18.500,126.333 18.500 C 126.150 18.500,126.000 18.425,126.000 18.333 C 126.000 18.242,125.850 18.167,125.667 18.167 C 125.483 18.167,125.333 18.092,125.333 18.000 C 125.333 17.908,125.183 17.833,125.000 17.833 C 124.817 17.833,124.667 17.758,124.667 17.667 C 124.667 17.575,124.442 17.500,124.167 17.500 C 123.892 17.500,123.667 17.425,123.667 17.333 C 123.667 17.242,123.367 17.167,123.000 17.167 C 122.633 17.167,122.333 17.092,122.333 17.000 C 122.333 16.908,122.033 16.833,121.667 16.833 C 121.300 16.833,121.000 16.758,121.000 16.667 C 121.000 16.570,120.472 16.500,119.750 16.500 C 119.028 16.500,118.500 16.430,118.500 16.333 C 118.500 16.224,115.222 16.167,108.999 16.167 L 99.499 16.167 99.541 36.958 M118.250 23.667 C 118.307 23.758,118.649 23.833,119.010 23.833 C 119.371 23.833,119.667 23.908,119.667 24.000 C 119.667 24.092,119.892 24.167,120.167 24.167 C 120.442 24.167,120.667 24.242,120.667 24.333 C 120.667 24.425,120.817 24.500,121.000 24.500 C 121.183 24.500,121.333 24.575,121.333 24.667 C 121.333 24.758,121.483 24.833,121.667 24.833 C 121.850 24.833,122.000 24.908,122.000 25.000 C 122.000 25.092,122.144 25.167,122.319 25.167 C 122.495 25.167,122.664 25.236,122.694 25.321 C 122.725 25.407,123.331 26.078,124.042 26.814 C 124.752 27.549,125.333 28.251,125.333 28.372 C 125.333 28.494,125.483 28.701,125.667 28.833 C 125.850 28.965,126.000 29.207,126.000 29.370 C 126.000 29.533,126.075 29.667,126.167 29.667 C 126.258 29.667,126.333 29.850,126.333 30.073 C 126.333 30.297,126.408 30.527,126.500 30.583 C 126.592 30.640,126.667 30.832,126.667 31.010 C 126.667 31.188,126.742 31.333,126.833 31.333 C 126.925 31.333,127.000 31.633,127.000 32.000 C 127.000 32.367,127.075 32.667,127.167 32.667 C 127.258 32.667,127.333 33.042,127.333 33.500 C 127.333 33.958,127.408 34.333,127.500 34.333 C 127.604 34.333,127.667 35.302,127.667 36.907 C 127.667 38.443,127.599 39.522,127.500 39.583 C 127.408 39.640,127.333 40.015,127.333 40.417 C 127.333 40.818,127.258 41.193,127.167 41.250 C 127.075 41.307,127.000 41.611,127.000 41.927 C 127.000 42.242,126.925 42.500,126.833 42.500 C 126.742 42.500,126.667 42.725,126.667 43.000 C 126.667 43.275,126.592 43.500,126.500 43.500 C 126.408 43.500,126.333 43.605,126.333 43.734 C 126.333 44.050,125.640 45.333,125.469 45.333 C 125.394 45.333,125.333 45.454,125.333 45.602 C 125.333 45.942,122.598 48.667,122.256 48.667 C 122.115 48.667,122.000 48.742,122.000 48.833 C 122.000 48.925,121.850 49.000,121.667 49.000 C 121.483 49.000,121.333 49.075,121.333 49.167 C 121.333 49.258,121.183 49.333,121.000 49.333 C 120.817 49.333,120.667 49.408,120.667 49.500 C 120.667 49.592,120.517 49.667,120.333 49.667 C 120.150 49.667,120.000 49.742,120.000 49.833 C 120.000 49.925,119.704 50.000,119.343 50.000 C 118.982 50.000,118.640 50.075,118.583 50.167 C 118.518 50.272,116.665 50.333,113.573 50.333 L 108.667 50.333 108.667 36.917 L 108.667 23.500 113.407 23.500 C 116.387 23.500,118.185 23.562,118.250 23.667 M217.333 27.500 C 217.333 27.592,216.958 27.667,216.500 27.667 C 216.042 27.667,215.667 27.742,215.667 27.833 C 215.667 27.925,215.367 28.000,215.000 28.000 C 214.633 28.000,214.333 28.075,214.333 28.167 C 214.333 28.258,214.188 28.333,214.010 28.333 C 213.832 28.333,213.640 28.408,213.583 28.500 C 213.527 28.592,213.335 28.667,213.157 28.667 C 212.979 28.667,212.833 28.742,212.833 28.833 C 212.833 28.925,212.732 29.000,212.608 29.000 C 212.484 29.000,212.147 29.225,211.860 29.500 C 211.572 29.775,211.253 30.000,211.152 30.000 C 211.050 30.000,210.751 30.232,210.486 30.515 C 209.900 31.142,209.500 30.905,209.500 29.929 C 209.500 29.601,209.425 29.333,209.333 29.333 C 209.242 29.333,209.167 29.215,209.167 29.071 C 209.167 28.735,208.765 28.333,208.429 28.333 C 208.285 28.333,208.167 28.258,208.167 28.167 C 208.167 28.062,207.028 28.000,205.083 28.000 L 202.000 28.000 202.000 47.670 L 202.000 67.339 206.208 67.295 L 210.417 67.250 210.461 61.798 C 210.508 55.874,210.483 56.009,211.379 56.841 C 211.542 56.992,211.992 57.216,212.379 57.337 C 212.767 57.459,213.155 57.620,213.242 57.696 C 213.329 57.771,213.610 57.833,213.867 57.833 C 214.123 57.833,214.333 57.908,214.333 58.000 C 214.333 58.104,215.333 58.167,217.000 58.167 C 218.667 58.167,219.667 58.104,219.667 58.000 C 219.667 57.908,219.967 57.833,220.333 57.833 C 220.700 57.833,221.000 57.758,221.000 57.667 C 221.000 57.575,221.225 57.500,221.500 57.500 C 221.775 57.500,222.000 57.425,222.000 57.333 C 222.000 57.242,222.150 57.167,222.333 57.167 C 222.517 57.167,222.667 57.092,222.667 57.000 C 222.667 56.908,222.760 56.833,222.875 56.833 C 222.990 56.833,223.301 56.646,223.568 56.416 C 223.834 56.187,224.107 56.000,224.176 56.000 C 224.401 56.000,226.833 53.527,226.833 53.298 C 226.833 53.175,226.983 52.965,227.167 52.833 C 227.350 52.701,227.500 52.460,227.500 52.297 C 227.500 52.133,227.575 52.000,227.667 52.000 C 227.758 52.000,227.833 51.850,227.833 51.667 C 227.833 51.483,227.908 51.333,228.000 51.333 C 228.092 51.333,228.167 51.183,228.167 51.000 C 228.167 50.817,228.242 50.667,228.333 50.667 C 228.425 50.667,228.500 50.517,228.500 50.333 C 228.500 50.150,228.575 50.000,228.667 50.000 C 228.758 50.000,228.833 49.775,228.833 49.500 C 228.833 49.225,228.908 49.000,229.000 49.000 C 229.092 49.000,229.167 48.779,229.167 48.510 C 229.167 48.240,229.242 47.973,229.333 47.917 C 229.425 47.860,229.500 47.410,229.500 46.917 C 229.500 46.423,229.575 45.973,229.667 45.917 C 229.769 45.853,229.833 44.470,229.833 42.323 C 229.833 40.108,229.772 38.833,229.667 38.833 C 229.575 38.833,229.500 38.458,229.500 38.000 C 229.500 37.542,229.425 37.167,229.333 37.167 C 229.242 37.167,229.167 36.867,229.167 36.500 C 229.167 36.133,229.092 35.833,229.000 35.833 C 228.908 35.833,228.833 35.571,228.833 35.250 C 228.833 34.929,228.758 34.667,228.667 34.667 C 228.575 34.667,228.500 34.442,228.500 34.167 C 228.500 33.892,228.425 33.667,228.333 33.667 C 228.242 33.667,228.167 33.517,228.167 33.333 C 228.167 33.150,228.092 33.000,228.000 33.000 C 227.908 33.000,227.833 32.902,227.833 32.781 C 227.833 32.661,227.683 32.402,227.500 32.205 C 227.317 32.008,227.167 31.768,227.167 31.671 C 227.167 31.414,224.712 29.000,224.451 29.000 C 224.329 29.000,224.069 28.850,223.872 28.667 C 223.675 28.483,223.398 28.333,223.257 28.333 C 223.116 28.333,223.000 28.258,223.000 28.167 C 223.000 28.075,222.775 28.000,222.500 28.000 C 222.225 28.000,222.000 27.925,222.000 27.833 C 222.000 27.742,221.625 27.667,221.167 27.667 C 220.708 27.667,220.333 27.592,220.333 27.500 C 220.333 27.401,219.722 27.333,218.833 27.333 C 217.944 27.333,217.333 27.401,217.333 27.500 M150.833 27.833 C 150.833 27.925,150.533 28.000,150.167 28.000 C 149.800 28.000,149.500 28.075,149.500 28.167 C 149.500 28.258,149.275 28.333,149.000 28.333 C 148.725 28.333,148.500 28.408,148.500 28.500 C 148.500 28.592,148.350 28.667,148.167 28.667 C 147.983 28.667,147.833 28.742,147.833 28.833 C 147.833 28.925,147.688 29.000,147.510 29.000 C 147.332 29.000,147.140 29.075,147.083 29.167 C 147.027 29.258,146.835 29.333,146.657 29.333 C 146.479 29.333,146.333 29.408,146.333 29.500 C 146.333 29.592,146.230 29.667,146.103 29.667 C 145.977 29.667,145.564 29.967,145.187 30.333 C 144.809 30.700,144.421 31.000,144.326 31.000 C 144.091 31.000,143.333 31.770,143.333 32.009 C 143.333 32.114,143.108 32.410,142.833 32.667 C 142.558 32.924,142.333 33.237,142.333 33.363 C 142.333 33.490,142.183 33.701,142.000 33.833 C 141.817 33.965,141.667 34.207,141.667 34.370 C 141.667 34.533,141.592 34.667,141.500 34.667 C 141.408 34.667,141.333 34.854,141.333 35.083 C 141.333 35.313,141.258 35.500,141.167 35.500 C 141.075 35.500,141.000 35.725,141.000 36.000 C 141.000 36.275,140.925 36.500,140.833 36.500 C 140.742 36.500,140.667 36.725,140.667 37.000 C 140.667 37.275,140.592 37.500,140.500 37.500 C 140.408 37.500,140.333 37.800,140.333 38.167 C 140.333 38.533,140.258 38.833,140.167 38.833 C 140.060 38.833,140.000 40.194,140.000 42.583 C 140.000 44.972,140.060 46.333,140.167 46.333 C 140.258 46.333,140.333 46.713,140.333 47.177 C 140.333 47.696,140.397 47.980,140.500 47.917 C 140.599 47.855,140.667 48.054,140.667 48.407 C 140.667 48.733,140.742 49.000,140.833 49.000 C 140.925 49.000,141.000 49.225,141.000 49.500 C 141.000 49.775,141.075 50.000,141.167 50.000 C 141.258 50.000,141.333 50.150,141.333 50.333 C 141.333 50.517,141.408 50.667,141.500 50.667 C 141.592 50.667,141.667 50.800,141.667 50.963 C 141.667 51.126,141.817 51.368,142.000 51.500 C 142.183 51.632,142.333 51.857,142.333 52.000 C 142.333 52.143,142.483 52.368,142.667 52.500 C 142.850 52.632,143.000 52.838,143.000 52.957 C 143.000 53.224,145.088 55.333,145.352 55.333 C 145.458 55.333,145.666 55.471,145.814 55.640 C 146.144 56.017,147.588 56.833,147.923 56.833 C 148.057 56.833,148.167 56.908,148.167 57.000 C 148.167 57.092,148.317 57.167,148.500 57.167 C 148.683 57.167,148.833 57.242,148.833 57.333 C 148.833 57.425,149.058 57.500,149.333 57.500 C 149.608 57.500,149.833 57.575,149.833 57.667 C 149.833 57.758,150.208 57.833,150.667 57.833 C 151.125 57.833,151.500 57.908,151.500 58.000 C 151.500 58.106,152.719 58.167,154.823 58.167 C 156.859 58.167,158.187 58.102,158.250 58.000 C 158.307 57.908,158.724 57.833,159.177 57.833 C 159.629 57.833,160.000 57.758,160.000 57.667 C 160.000 57.575,160.300 57.500,160.667 57.500 C 161.033 57.500,161.333 57.425,161.333 57.333 C 161.333 57.242,161.483 57.167,161.667 57.167 C 161.850 57.167,162.000 57.092,162.000 57.000 C 162.000 56.908,162.146 56.833,162.324 56.833 C 162.701 56.833,163.856 56.198,164.050 55.883 C 164.123 55.764,164.275 55.667,164.388 55.667 C 164.501 55.667,164.701 55.517,164.833 55.333 C 164.965 55.150,165.169 55.000,165.286 55.000 C 165.651 55.000,167.167 53.393,167.167 53.005 C 167.167 52.620,166.542 51.697,165.792 50.975 C 165.540 50.732,165.333 50.447,165.333 50.342 C 165.333 49.693,164.535 49.333,163.091 49.333 C 162.253 49.333,161.667 49.402,161.667 49.500 C 161.667 49.592,161.517 49.667,161.333 49.667 C 161.150 49.667,161.000 49.742,161.000 49.833 C 161.000 49.925,160.850 50.000,160.667 50.000 C 160.483 50.000,160.333 50.075,160.333 50.167 C 160.333 50.258,160.183 50.333,160.000 50.333 C 159.817 50.333,159.667 50.408,159.667 50.500 C 159.667 50.592,159.517 50.667,159.333 50.667 C 159.150 50.667,159.000 50.742,159.000 50.833 C 159.000 50.925,158.775 51.000,158.500 51.000 C 158.225 51.000,158.000 51.075,158.000 51.167 C 158.000 51.258,157.704 51.333,157.343 51.333 C 156.982 51.333,156.640 51.408,156.583 51.500 C 156.527 51.592,155.960 51.667,155.323 51.667 C 154.663 51.667,154.167 51.595,154.167 51.500 C 154.167 51.408,153.867 51.333,153.500 51.333 C 153.133 51.333,152.833 51.258,152.833 51.167 C 152.833 51.075,152.683 51.000,152.500 51.000 C 152.317 51.000,152.167 50.925,152.167 50.833 C 152.167 50.742,152.033 50.667,151.870 50.667 C 151.707 50.667,151.465 50.517,151.333 50.333 C 151.201 50.150,150.960 50.000,150.797 50.000 C 150.633 50.000,150.500 49.880,150.500 49.734 C 150.500 49.587,150.275 49.257,150.000 49.000 C 149.725 48.743,149.500 48.413,149.500 48.266 C 149.500 48.120,149.425 48.000,149.333 48.000 C 149.242 48.000,149.167 47.850,149.167 47.667 C 149.167 47.483,149.092 47.333,149.000 47.333 C 148.908 47.333,148.833 47.108,148.833 46.833 C 148.833 46.558,148.758 46.333,148.667 46.333 C 148.575 46.333,148.500 46.011,148.500 45.617 C 148.500 45.223,148.410 44.810,148.300 44.700 C 148.144 44.544,148.811 44.500,151.300 44.500 C 153.322 44.500,154.500 44.439,154.500 44.333 C 154.500 44.225,156.694 44.167,160.750 44.167 C 166.251 44.167,167.000 44.136,167.000 43.911 C 167.000 43.771,167.112 43.613,167.250 43.560 C 167.550 43.445,167.629 37.766,167.333 37.583 C 167.242 37.527,167.167 37.231,167.167 36.927 C 167.167 36.623,167.054 36.281,166.917 36.167 C 166.779 36.053,166.667 35.781,166.667 35.563 C 166.667 35.345,166.592 35.167,166.500 35.167 C 166.408 35.167,166.333 34.979,166.333 34.750 C 166.333 34.521,166.258 34.333,166.167 34.333 C 166.075 34.333,166.000 34.183,166.000 34.000 C 166.000 33.817,165.925 33.667,165.833 33.667 C 165.742 33.667,165.667 33.517,165.667 33.333 C 165.667 33.150,165.592 33.000,165.500 33.000 C 165.408 33.000,165.333 32.886,165.333 32.748 C 165.333 32.441,162.592 29.667,162.289 29.667 C 162.171 29.667,161.965 29.517,161.833 29.333 C 161.701 29.150,161.460 29.000,161.297 29.000 C 161.133 29.000,161.000 28.925,161.000 28.833 C 161.000 28.742,160.775 28.667,160.500 28.667 C 160.225 28.667,160.000 28.592,160.000 28.500 C 160.000 28.408,159.850 28.333,159.667 28.333 C 159.483 28.333,159.333 28.258,159.333 28.167 C 159.333 28.075,158.996 28.000,158.583 28.000 C 158.171 28.000,157.833 27.925,157.833 27.833 C 157.833 27.728,156.556 27.667,154.333 27.667 C 152.111 27.667,150.833 27.728,150.833 27.833 M181.333 27.833 C 181.333 27.925,181.033 28.000,180.667 28.000 C 180.300 28.000,180.000 28.075,180.000 28.167 C 180.000 28.258,179.775 28.333,179.500 28.333 C 179.225 28.333,179.000 28.408,179.000 28.500 C 179.000 28.592,178.775 28.667,178.500 28.667 C 178.225 28.667,178.000 28.742,178.000 28.833 C 178.000 28.925,177.867 29.000,177.703 29.000 C 177.540 29.000,177.299 29.150,177.167 29.333 C 177.035 29.517,176.793 29.667,176.630 29.667 C 176.467 29.667,176.333 29.742,176.333 29.833 C 176.333 29.925,176.222 30.000,176.085 30.000 C 175.634 30.000,172.500 32.997,172.500 33.428 C 172.500 33.559,172.425 33.667,172.333 33.667 C 172.242 33.667,172.167 33.817,172.167 34.000 C 172.167 34.183,172.092 34.333,172.000 34.333 C 171.908 34.333,171.833 34.446,171.833 34.583 C 171.833 34.721,171.758 34.833,171.667 34.833 C 171.575 34.833,171.500 35.058,171.500 35.333 C 171.500 35.608,171.425 35.833,171.333 35.833 C 171.242 35.833,171.167 35.983,171.167 36.167 C 171.167 36.350,171.092 36.500,171.000 36.500 C 170.908 36.500,170.833 36.725,170.833 37.000 C 170.833 37.275,170.758 37.500,170.667 37.500 C 170.575 37.500,170.500 37.796,170.500 38.157 C 170.500 38.518,170.425 38.860,170.333 38.917 C 170.231 38.980,170.167 40.387,170.167 42.583 C 170.167 44.779,170.231 46.187,170.333 46.250 C 170.425 46.307,170.500 46.649,170.500 47.010 C 170.500 47.371,170.575 47.667,170.667 47.667 C 170.758 47.667,170.833 47.967,170.833 48.333 C 170.833 48.700,170.908 49.000,171.000 49.000 C 171.092 49.000,171.167 49.225,171.167 49.500 C 171.167 49.775,171.242 50.000,171.333 50.000 C 171.425 50.000,171.500 50.150,171.500 50.333 C 171.500 50.517,171.575 50.667,171.667 50.667 C 171.758 50.667,171.833 50.800,171.833 50.963 C 171.833 51.126,171.983 51.368,172.167 51.500 C 172.350 51.632,172.500 51.857,172.500 52.000 C 172.500 52.143,172.650 52.368,172.833 52.500 C 173.017 52.632,173.167 52.842,173.167 52.966 C 173.167 53.259,175.301 55.333,175.603 55.333 C 175.730 55.333,175.833 55.408,175.833 55.500 C 175.833 55.592,175.938 55.667,176.066 55.667 C 176.193 55.667,176.341 55.779,176.394 55.917 C 176.446 56.054,176.604 56.167,176.745 56.167 C 176.885 56.167,177.000 56.228,177.000 56.302 C 177.000 56.497,178.304 57.167,178.682 57.167 C 178.857 57.167,179.000 57.242,179.000 57.333 C 179.000 57.425,179.225 57.500,179.500 57.500 C 179.775 57.500,180.000 57.575,180.000 57.667 C 180.000 57.758,180.300 57.833,180.667 57.833 C 181.033 57.833,181.333 57.908,181.333 58.000 C 181.333 58.106,182.719 58.167,185.157 58.167 C 187.526 58.167,189.020 58.103,189.083 58.000 C 189.140 57.908,189.482 57.833,189.843 57.833 C 190.204 57.833,190.500 57.758,190.500 57.667 C 190.500 57.575,190.725 57.500,191.000 57.500 C 191.275 57.500,191.500 57.425,191.500 57.333 C 191.500 57.242,191.725 57.167,192.000 57.167 C 192.275 57.167,192.500 57.092,192.500 57.000 C 192.500 56.908,192.650 56.833,192.833 56.833 C 193.017 56.833,193.167 56.758,193.167 56.667 C 193.167 56.575,193.317 56.500,193.500 56.500 C 193.683 56.500,193.833 56.425,193.833 56.333 C 193.833 56.242,193.935 56.167,194.060 56.167 C 194.185 56.167,194.427 55.979,194.600 55.750 C 194.772 55.521,195.036 55.333,195.187 55.333 C 195.520 55.333,197.667 53.284,197.667 52.966 C 197.667 52.842,197.517 52.632,197.333 52.500 C 197.150 52.368,197.000 52.180,197.000 52.084 C 197.000 51.987,196.869 51.785,196.708 51.634 C 196.548 51.484,196.229 51.127,196.000 50.841 C 194.755 49.287,194.838 49.333,193.266 49.333 C 192.422 49.333,191.833 49.402,191.833 49.500 C 191.833 49.592,191.700 49.667,191.537 49.667 C 191.374 49.667,191.132 49.817,191.000 50.000 C 190.868 50.183,190.626 50.333,190.463 50.333 C 190.300 50.333,190.167 50.408,190.167 50.500 C 190.167 50.592,189.942 50.667,189.667 50.667 C 189.392 50.667,189.167 50.742,189.167 50.833 C 189.167 50.925,189.017 51.000,188.833 51.000 C 188.650 51.000,188.500 51.075,188.500 51.167 C 188.500 51.258,188.200 51.333,187.833 51.333 C 187.467 51.333,187.167 51.408,187.167 51.500 C 187.167 51.598,186.583 51.667,185.750 51.667 C 184.917 51.667,184.333 51.598,184.333 51.500 C 184.333 51.408,184.108 51.333,183.833 51.333 C 183.558 51.333,183.333 51.258,183.333 51.167 C 183.333 51.075,183.125 51.000,182.870 51.000 C 182.598 51.000,182.308 50.862,182.167 50.667 C 182.035 50.483,181.828 50.333,181.708 50.333 C 181.423 50.333,180.333 49.243,180.333 48.959 C 180.333 48.839,180.183 48.632,180.000 48.500 C 179.817 48.368,179.667 48.126,179.667 47.963 C 179.667 47.800,179.592 47.667,179.500 47.667 C 179.408 47.667,179.333 47.517,179.333 47.333 C 179.333 47.150,179.258 47.000,179.167 47.000 C 179.075 47.000,179.000 46.775,179.000 46.500 C 179.000 46.225,178.925 46.000,178.833 46.000 C 178.742 46.000,178.667 45.663,178.667 45.250 L 178.667 44.500 187.500 44.500 C 193.278 44.500,196.333 44.442,196.333 44.333 C 196.333 44.242,196.526 44.167,196.762 44.167 C 197.612 44.167,197.667 43.950,197.667 40.595 C 197.667 38.643,197.605 37.500,197.500 37.500 C 197.408 37.500,197.333 37.200,197.333 36.833 C 197.333 36.467,197.258 36.167,197.167 36.167 C 197.075 36.167,197.000 35.942,197.000 35.667 C 197.000 35.392,196.925 35.167,196.833 35.167 C 196.742 35.167,196.667 35.060,196.667 34.931 C 196.667 33.959,193.203 29.667,192.419 29.667 C 192.280 29.667,192.167 29.592,192.167 29.500 C 192.167 29.408,192.017 29.333,191.833 29.333 C 191.650 29.333,191.500 29.258,191.500 29.167 C 191.500 29.075,191.350 29.000,191.167 29.000 C 190.983 29.000,190.833 28.925,190.833 28.833 C 190.833 28.742,190.683 28.667,190.500 28.667 C 190.317 28.667,190.167 28.592,190.167 28.500 C 190.167 28.408,189.942 28.333,189.667 28.333 C 189.392 28.333,189.167 28.258,189.167 28.167 C 189.167 28.075,188.867 28.000,188.500 28.000 C 188.133 28.000,187.833 27.925,187.833 27.833 C 187.833 27.728,186.639 27.667,184.583 27.667 C 182.528 27.667,181.333 27.728,181.333 27.833 M21.417 38.489 C 25.817 41.412,32.547 45.883,36.374 48.425 L 43.331 53.047 45.207 51.825 C 46.239 51.153,49.971 48.687,53.500 46.343 C 57.029 44.000,59.988 42.053,60.075 42.017 C 60.162 41.980,63.161 40.000,66.740 37.616 C 70.319 35.232,73.368 33.250,73.514 33.211 C 73.859 33.121,82.505 37.690,82.379 37.895 C 82.292 38.035,79.065 40.185,57.250 54.636 C 45.701 62.287,43.771 63.548,43.495 63.620 C 43.339 63.660,39.484 61.210,34.321 57.789 C 9.859 41.580,4.543 38.037,4.449 37.886 C 4.393 37.795,4.931 37.415,5.645 37.042 C 7.889 35.867,11.726 33.834,12.333 33.497 C 13.218 33.008,12.900 32.833,21.417 38.489 M155.500 33.833 C 155.500 33.925,155.721 34.000,155.990 34.000 C 156.260 34.000,156.527 34.075,156.583 34.167 C 156.640 34.258,156.815 34.333,156.973 34.333 C 157.131 34.333,157.368 34.483,157.500 34.667 C 157.632 34.850,157.874 35.000,158.037 35.000 C 158.222 35.000,158.333 35.125,158.333 35.333 C 158.333 35.517,158.394 35.667,158.469 35.667 C 158.640 35.667,159.333 36.950,159.333 37.266 C 159.333 37.395,159.408 37.500,159.500 37.500 C 159.592 37.500,159.667 37.875,159.667 38.333 L 159.667 39.167 154.083 39.167 C 148.611 39.167,148.500 39.160,148.500 38.833 C 148.500 38.650,148.575 38.500,148.667 38.500 C 148.758 38.500,148.833 38.275,148.833 38.000 C 148.833 37.725,148.908 37.500,149.000 37.500 C 149.092 37.500,149.167 37.350,149.167 37.167 C 149.167 36.983,149.242 36.833,149.333 36.833 C 149.425 36.833,149.500 36.721,149.500 36.583 C 149.500 36.446,149.575 36.333,149.667 36.333 C 149.758 36.333,149.833 36.235,149.833 36.116 C 149.833 35.793,150.920 34.667,151.231 34.667 C 151.379 34.667,151.500 34.592,151.500 34.500 C 151.500 34.408,151.650 34.333,151.833 34.333 C 152.017 34.333,152.167 34.258,152.167 34.167 C 152.167 34.075,152.467 34.000,152.833 34.000 C 153.200 34.000,153.500 33.925,153.500 33.833 C 153.500 33.741,153.944 33.667,154.500 33.667 C 155.056 33.667,155.500 33.741,155.500 33.833 M185.833 33.833 C 185.833 33.925,186.058 34.000,186.333 34.000 C 186.608 34.000,186.833 34.075,186.833 34.167 C 186.833 34.258,186.983 34.333,187.167 34.333 C 187.350 34.333,187.500 34.408,187.500 34.500 C 187.500 34.592,187.616 34.667,187.758 34.667 C 188.253 34.667,189.500 36.281,189.500 36.922 C 189.500 37.056,189.575 37.167,189.667 37.167 C 189.758 37.167,189.833 37.467,189.833 37.833 C 189.833 38.200,189.908 38.500,190.000 38.500 C 190.092 38.500,190.167 38.650,190.167 38.833 C 190.167 39.160,190.056 39.167,184.417 39.167 C 180.694 39.167,178.667 39.108,178.667 39.000 C 178.667 38.908,178.742 38.833,178.833 38.833 C 178.925 38.833,179.000 38.608,179.000 38.333 C 179.000 38.058,179.075 37.833,179.167 37.833 C 179.258 37.833,179.333 37.736,179.333 37.617 C 179.333 37.310,179.725 36.503,179.875 36.501 C 179.944 36.501,180.000 36.387,180.000 36.250 C 180.000 36.112,180.075 36.000,180.167 36.000 C 180.258 36.000,180.333 35.882,180.333 35.738 C 180.333 35.417,180.729 35.000,181.035 35.000 C 181.158 35.000,181.368 34.850,181.500 34.667 C 181.641 34.471,181.931 34.333,182.203 34.333 C 182.458 34.333,182.667 34.258,182.667 34.167 C 182.667 34.075,182.892 34.000,183.167 34.000 C 183.442 34.000,183.667 33.925,183.667 33.833 C 183.667 33.739,184.139 33.667,184.750 33.667 C 185.361 33.667,185.833 33.739,185.833 33.833 M216.667 34.167 C 216.667 34.258,216.967 34.333,217.333 34.333 C 217.700 34.333,218.000 34.408,218.000 34.500 C 218.000 34.592,218.115 34.667,218.256 34.667 C 218.541 34.667,219.667 35.726,219.667 35.994 C 219.667 36.089,219.742 36.167,219.833 36.167 C 219.925 36.167,220.000 36.317,220.000 36.500 C 220.000 36.683,220.075 36.833,220.167 36.833 C 220.258 36.833,220.333 37.016,220.333 37.240 C 220.333 37.464,220.408 37.693,220.500 37.750 C 220.592 37.807,220.667 38.074,220.667 38.343 C 220.667 38.613,220.742 38.833,220.833 38.833 C 220.929 38.833,221.000 39.333,221.000 40.000 C 221.000 40.667,221.071 41.167,221.167 41.167 C 221.264 41.167,221.333 41.719,221.333 42.490 C 221.333 43.218,221.258 43.860,221.167 43.917 C 221.075 43.973,221.000 44.540,221.000 45.177 C 221.000 45.837,220.928 46.333,220.833 46.333 C 220.742 46.333,220.667 46.633,220.667 47.000 C 220.667 47.367,220.592 47.667,220.500 47.667 C 220.408 47.667,220.333 47.817,220.333 48.000 C 220.333 48.183,220.258 48.333,220.167 48.333 C 220.075 48.333,220.000 48.483,220.000 48.667 C 220.000 48.850,219.925 49.000,219.833 49.000 C 219.742 49.000,219.667 49.115,219.667 49.256 C 219.667 49.567,218.596 50.667,218.292 50.667 C 218.172 50.667,217.965 50.817,217.833 51.000 C 217.692 51.196,217.402 51.333,217.130 51.333 C 216.875 51.333,216.667 51.408,216.667 51.500 C 216.667 51.598,216.083 51.667,215.250 51.667 C 214.417 51.667,213.833 51.598,213.833 51.500 C 213.833 51.408,213.608 51.333,213.333 51.333 C 213.058 51.333,212.833 51.258,212.833 51.167 C 212.833 51.075,212.683 51.000,212.500 51.000 C 212.317 51.000,212.167 50.925,212.167 50.833 C 212.167 50.742,212.052 50.667,211.911 50.667 C 211.771 50.667,211.396 50.407,211.078 50.089 L 210.500 49.511 210.500 43.410 L 210.500 37.309 211.237 36.530 C 211.642 36.101,212.120 35.581,212.298 35.375 C 212.477 35.169,212.745 35.000,212.895 35.000 C 213.044 35.000,213.167 34.925,213.167 34.833 C 213.167 34.742,213.317 34.667,213.500 34.667 C 213.683 34.667,213.833 34.592,213.833 34.500 C 213.833 34.408,214.246 34.333,214.750 34.333 C 215.254 34.333,215.667 34.258,215.667 34.167 C 215.667 34.075,215.892 34.000,216.167 34.000 C 216.442 34.000,216.667 34.075,216.667 34.167 M17.870 50.276 C 20.188 51.800,24.653 54.761,27.793 56.856 C 30.934 58.952,33.542 60.667,33.588 60.667 C 33.635 60.667,35.802 62.092,38.404 63.833 C 41.006 65.575,43.249 67.000,43.388 67.000 C 43.527 67.000,48.128 64.028,53.612 60.396 C 72.333 47.995,73.351 47.333,73.675 47.334 C 73.808 47.335,74.104 47.434,74.333 47.554 C 74.563 47.674,75.800 48.325,77.083 49.001 C 78.367 49.676,80.073 50.571,80.875 50.990 C 82.598 51.888,82.622 51.975,81.375 52.787 C 79.764 53.837,66.819 62.383,62.750 65.085 C 48.491 74.551,43.426 77.841,43.229 77.765 C 43.106 77.718,41.785 76.864,40.294 75.868 C 38.803 74.872,34.208 71.825,30.083 69.097 C 0.780 49.716,3.919 52.054,5.833 51.040 C 6.337 50.773,7.650 50.079,8.750 49.497 C 9.850 48.916,11.275 48.161,11.917 47.821 C 12.773 47.366,13.160 47.242,13.370 47.354 C 13.528 47.438,15.553 48.753,17.870 50.276 " stroke="none" fill="#ec3c6c" fill-rule="evenodd"></path></g></svg>